<svg width="50" height="50" viewBox="0 0 50 50" fill="none" xmlns="http://www.w3.org/2000/svg">
<path fill-rule="evenodd" clip-rule="evenodd" d="M8.4248 1.72559H33.1895C34.8477 1.72559 36.2041 3.08203 36.2041 4.74023V40.3027C36.2041 41.9609 34.8477 43.3174 33.1895 43.3174H8.4248C6.7666 43.3174 5.41016 41.9609 5.41016 40.3027V4.73926C5.41016 3.08203 6.7666 1.72559 8.4248 1.72559Z" fill="#999999"/>
<path fill-rule="evenodd" clip-rule="evenodd" d="M4.08887 5.70117H28.8535C30.5117 5.70117 31.8682 7.05762 31.8682 8.71582V44.2793C31.8682 45.9375 30.5117 47.2939 28.8535 47.2939H4.08887C2.43066 47.2939 1.07422 45.9375 1.07422 44.2793V8.71484C1.07422 7.05664 2.43066 5.70117 4.08887 5.70117Z" fill="#242626"/>
<path d="M32.8477 48.2744C41.7274 48.2744 48.9258 41.076 48.9258 32.1963C48.9258 23.3166 41.7274 16.1182 32.8477 16.1182C23.968 16.1182 16.7695 23.3166 16.7695 32.1963C16.7695 41.076 23.968 48.2744 32.8477 48.2744Z" fill="#FCD770"/>
<path fill-rule="evenodd" clip-rule="evenodd" d="M25.4951 5.70117V12.6064L21.4463 9.9375L17.3965 12.6064V5.70117H25.4951Z" fill="#FCD770"/>
<path fill-rule="evenodd" clip-rule="evenodd" d="M38.3428 36.1582L35.0508 33.2646C34.9688 33.1934 34.8457 33.2012 34.7734 33.2822C34.7021 33.3633 34.7139 33.4873 34.7939 33.5576L38.2188 36.5684C38.459 36.7803 38.6055 37.0771 38.623 37.3975C38.6406 37.7158 38.5371 38.0244 38.3272 38.2637C37.8926 38.7598 37.125 38.8096 36.6309 38.373L35.9199 37.7451L33.0986 35.2676C33.0186 35.1973 32.8936 35.2031 32.8223 35.2842C32.7529 35.3643 32.7568 35.4902 32.8379 35.5605L35.7471 38.1162C36.2441 38.5527 36.2949 39.3145 35.8594 39.8125C35.6465 40.0547 35.3516 40.1963 35.0303 40.2168C34.7119 40.2373 34.4023 40.1328 34.1621 39.9238L33.4365 39.2832L32.3154 38.2998C32.251 38.2432 32.1543 38.2354 32.082 38.2822C32.0664 38.292 32.0527 38.3047 32.041 38.3184C31.9688 38.3994 31.9775 38.5215 32.0586 38.5928L33.2432 39.6348C33.7402 40.0723 33.792 40.833 33.3545 41.3301C32.9121 41.832 32.3242 41.8271 31.7773 41.501L31.4678 41.3164L31.627 40.9932C31.7471 40.75 31.7979 40.4824 31.7793 40.2119C31.7617 39.9482 31.6836 39.6943 31.541 39.4707C31.4619 39.3467 31.3652 39.2363 31.2549 39.1396C31.0654 38.9736 30.8369 38.8555 30.5918 38.7959L30.0957 38.6748L30.3418 38.2275C30.4883 37.9609 30.5547 37.6621 30.5342 37.3584C30.5059 36.9336 30.3174 36.5449 29.998 36.2637C29.7695 36.0625 29.4912 35.9336 29.1904 35.8887L28.7822 35.8281L28.8662 35.4238C28.9824 34.8613 28.7969 34.2783 28.3623 33.8965C28.0439 33.6162 27.6328 33.4775 27.209 33.5059H27.207C27.1943 33.5078 27.1826 33.5088 27.1699 33.5098L26.7861 33.5352L26.7549 33.1514C26.7217 32.7422 26.5312 32.3672 26.2227 32.0967C25.9023 31.8154 25.4951 31.6777 25.0693 31.7051C24.6455 31.7324 24.2578 31.9219 23.9775 32.2412L23.9365 32.2871L23.625 32.4736L23.4102 32.2686C23.1592 32.0283 22.7686 31.9014 22.4385 31.8213L21.9219 31.6943L26.1416 24.709L26.4795 24.9258C26.9746 25.2432 27.5039 25.4609 28.0879 25.543C28.5166 25.6035 28.9141 25.582 29.3418 25.5469C29.373 25.5439 29.4053 25.542 29.4365 25.5391L30.708 25.4307L29.7148 26.2324C29.6543 26.2812 29.5957 26.3311 29.5342 26.3779C28.9854 26.7949 28.5654 27.3057 28.4258 27.9932C28.3154 28.5332 28.3945 29.0791 28.4756 29.6162C28.6123 30.5205 28.7022 31.2773 28.1777 32.0898C28.1455 32.1396 28.1377 32.2031 28.1582 32.2588C28.1787 32.3164 28.2256 32.3604 28.2832 32.3799C28.4844 32.4473 28.6943 32.4814 28.9063 32.4814C29.46 32.4814 29.9873 32.2539 30.4209 31.9209C30.9082 31.5459 31.3086 31.0186 31.502 30.4316C31.5908 30.1621 31.6367 29.874 31.6182 29.5898C31.5889 29.1406 31.8262 28.5156 32.2256 28.2803C32.5166 28.1094 32.8213 28.1855 33.0957 28.3496L33.126 28.3682L40.5596 34.9004C41.0566 35.3369 41.1025 36.0986 40.668 36.5957C40.2334 37.0928 39.4688 37.1406 38.9727 36.7061L38.3477 36.1582H38.3428Z" fill="#603713"/>
<path fill-rule="evenodd" clip-rule="evenodd" d="M24.5881 35.7764C24.1526 36.2725 23.3889 36.3223 22.8928 35.8857C22.3967 35.4492 22.344 34.6865 22.7815 34.1895L24.2659 32.5C24.4758 32.2607 24.7727 32.1162 25.0901 32.0957C25.1174 32.0938 25.1438 32.0928 25.1712 32.0928C25.4622 32.0928 25.7424 32.1982 25.9612 32.3906C26.4583 32.8272 26.51 33.5898 26.0725 34.0869L24.5881 35.7764ZM33.385 28.082L33.3801 28.0781L33.3704 28.0703C33.3655 28.0664 33.3616 28.0635 33.3567 28.0596L33.3538 28.0576L33.3333 28.0469L33.3235 28.0381C33.3206 28.0361 33.3176 28.0352 33.3157 28.0332C32.9212 27.7881 32.4758 27.6982 32.054 27.9277C32.0432 27.9336 32.0315 27.9395 32.0208 27.9463C31.4915 28.2588 31.1829 29.0244 31.2239 29.6172C31.2766 30.376 30.761 31.167 30.1799 31.6133C29.9231 31.8106 29.6292 31.9648 29.3137 32.041L28.6585 32.1992L28.8469 31.5518C29.0423 30.8799 28.9583 30.2363 28.8557 29.5596C28.7825 29.0742 28.6975 28.5596 28.7981 28.0732C28.9212 27.4785 29.2932 27.0498 29.7659 26.6914C30.0266 26.4932 30.2747 26.2725 30.5208 26.0576C30.884 25.7393 31.2464 25.4258 31.6292 25.1318C31.8831 24.9365 32.1438 24.751 32.4124 24.5752L32.4339 24.5615L32.4563 24.5508C33.3928 24.0957 34.6253 24.4307 35.5862 24.6582C35.8196 24.7139 36.054 24.7686 36.2883 24.8203C37.634 25.1133 38.9212 25.2295 40.2522 24.7773L40.596 24.6602L43.6243 31.8272L43.2844 31.9873C42.7073 32.2588 42.4495 32.5215 42.1213 33.0479C41.9866 33.2647 41.8587 33.4541 41.6751 33.6357C41.4143 33.8945 41.094 34.0889 40.7669 34.251L40.5325 34.3672L33.385 28.082ZM29.2424 39.6533C29.2903 39.5947 29.3411 39.5361 29.3948 39.4834C29.6155 39.2656 29.9114 39.1445 30.221 39.1445C30.5071 39.1445 30.7825 39.2461 30.9964 39.4365C31.2288 39.6426 31.3694 39.9316 31.387 40.2422C31.4046 40.5508 31.302 40.8516 31.0999 41.085L30.9475 41.2607C30.5256 41.7481 29.7756 41.7949 29.2932 41.3691C28.8108 40.9434 28.7639 40.2051 29.1848 39.7188L29.2424 39.6533ZM28.8264 39.4209L29.8469 38.2559C30.0569 38.0156 30.1604 37.708 30.1428 37.3897C30.1253 37.0693 29.9788 36.7725 29.7395 36.5615C29.5208 36.3682 29.2405 36.2637 28.9485 36.2637C28.9212 36.2637 28.8948 36.2647 28.8674 36.2656C28.5491 36.2861 28.2532 36.4307 28.0432 36.6699L27.0188 37.835C26.8079 38.0742 26.7044 38.3838 26.7219 38.7022V38.709C26.7454 39.0264 26.887 39.3203 27.1253 39.5303C27.6214 39.9678 28.3909 39.918 28.8264 39.4209ZM26.7249 37.5772L28.2092 35.8877C28.6458 35.3906 28.594 34.6279 28.0979 34.1914C27.8792 33.999 27.5989 33.8945 27.3079 33.8945C27.2805 33.8945 27.2542 33.8955 27.2268 33.8965C26.9075 33.917 26.6135 34.0606 26.4026 34.3008L24.9182 35.9902C24.7063 36.2305 24.6028 36.5449 24.6262 36.8604C24.6438 37.1787 24.7883 37.4746 25.0315 37.6865C25.5266 38.1211 26.2893 38.0723 26.7249 37.5772Z" fill="#603713"/>
<path fill-rule="evenodd" clip-rule="evenodd" d="M21.1338 32.2363L19.2012 31.0664L24.3105 22.5986L26.248 23.7686L21.1338 32.2363Z" fill="#81DCF6"/>
<path fill-rule="evenodd" clip-rule="evenodd" d="M40.5566 23.5146L42.6406 22.6322L46.4987 31.7433L44.4147 32.6257L40.5566 23.5146Z" fill="#81DCF6"/>
<path fill-rule="evenodd" clip-rule="evenodd" d="M45.9707 31.5596L42.4219 23.168L41.0576 23.7451L44.6064 32.1367L45.9707 31.5596ZM43.1172 31.6309C42.3086 32.0117 42.0332 32.4473 41.7891 32.8389C41.5732 33.1865 41.3652 33.5166 40.5928 33.8984L33.626 27.7754C33.6221 27.7725 33.6182 27.7695 33.6143 27.7666C33.6064 27.7598 33.5986 27.7539 33.5898 27.748C33.582 27.7412 33.5742 27.7354 33.5654 27.7295C33.5615 27.7275 33.5576 27.7246 33.5537 27.7227C33.5498 27.7188 33.5459 27.7158 33.5381 27.7129C33.5342 27.71 33.5264 27.707 33.5225 27.7041C32.7383 27.2158 32.1221 27.4346 31.8223 27.6113C31.1182 28.0273 30.7861 28.9697 30.834 29.6455C30.8701 30.1895 30.502 30.8721 29.9414 31.3047C29.7051 31.4834 29.4609 31.6045 29.2207 31.6621C29.4492 30.8779 29.3369 30.1328 29.2412 29.502C29.085 28.4619 28.9814 27.7754 30.002 27.0029C30.25 26.8145 30.5059 26.5898 30.7783 26.3516C31.2822 25.9102 31.8506 25.4102 32.6269 24.9014C33.3789 24.5361 34.3594 24.7686 35.4961 25.0371C36.873 25.3633 38.5615 25.7627 40.3779 25.1455L43.1172 31.6309ZM40.2969 35.1963L32.8906 28.6875C32.5986 28.5127 32.4707 28.5898 32.418 28.6191C32.1582 28.7734 31.9814 29.2539 32.002 29.5654C32.0664 30.5059 31.5381 31.5527 30.6533 32.2314C30.1055 32.6543 29.4932 32.873 28.9004 32.873C28.6445 32.873 28.3926 32.833 28.1523 32.751C27.9805 32.6934 27.8447 32.5596 27.7842 32.3896C27.7246 32.2197 27.748 32.0312 27.8438 31.8799C28.3076 31.1621 28.2041 30.4736 28.084 29.6768C27.9199 28.6016 27.7197 27.2627 29.292 26.0684C29.3477 26.0254 29.4043 25.9785 29.4639 25.9307C29.4355 25.9326 29.4043 25.9355 29.3682 25.9385C28.6357 25.999 27.5596 26.0879 26.2627 25.2568L22.5254 31.4443C23.0498 31.5732 23.418 31.7441 23.6738 31.9893L23.6777 31.9873C24.0254 31.5908 24.5098 31.3535 25.0381 31.3193C25.5703 31.2852 26.0781 31.459 26.4746 31.8066C26.875 32.1572 27.0986 32.6328 27.1387 33.124C27.1504 33.123 27.1631 33.1201 27.1787 33.1201C27.707 33.0859 28.2187 33.2588 28.6152 33.6074C29.1719 34.0967 29.3838 34.8291 29.2432 35.5068C29.6152 35.5625 29.9639 35.7217 30.252 35.9756C30.6484 36.3242 30.8838 36.8086 30.9199 37.3379C30.9443 37.7217 30.8604 38.0937 30.6797 38.4209C30.9756 38.4932 31.2637 38.6357 31.5078 38.8506C31.9004 39.1934 32.1318 39.6699 32.1641 40.1914C32.1885 40.5352 32.1201 40.8701 31.9717 41.1709C32.4082 41.4307 32.7715 41.4004 33.0557 41.0771C33.3516 40.7412 33.3154 40.2285 32.9795 39.9326L31.7949 38.8906C31.5508 38.6768 31.5264 38.3066 31.7432 38.0635C31.9551 37.8203 32.3271 37.7969 32.5674 38.0098L33.7559 39.0518L34.4121 39.6309C34.5762 39.7725 34.7842 39.8428 35 39.8291C35.2197 39.8154 35.416 39.7178 35.5605 39.5566C35.8525 39.2207 35.8203 38.707 35.4844 38.4121L32.5752 35.8564C32.335 35.6426 32.3115 35.2725 32.5234 35.0293C32.7353 34.7861 33.1074 34.7627 33.3516 34.9756L36.2607 37.5303L36.8848 38.0811C37.2207 38.376 37.7373 38.3428 38.0293 38.0068C38.1738 37.8447 38.2412 37.6367 38.2295 37.4189C38.2178 37.2021 38.1172 37.0039 37.957 36.8623L34.5322 33.8516C34.2881 33.6377 34.2637 33.2676 34.4766 33.0244C34.6924 32.7812 35.0605 32.7578 35.3047 32.9717L38.7295 35.9814V35.9824L39.2217 36.4141C39.5576 36.709 40.0742 36.6758 40.3662 36.3398C40.665 36.0049 40.6328 35.4912 40.2969 35.1963ZM30.6533 41.0049C30.3691 41.3281 29.873 41.3594 29.5527 41.0762C29.2285 40.792 29.1963 40.2979 29.4805 39.9746L29.54 39.9053C29.584 39.8516 29.6279 39.8008 29.668 39.7617C29.8203 39.6113 30.0205 39.5352 30.2197 39.5352C30.4033 39.5352 30.5879 39.5996 30.7363 39.7285C30.8887 39.8652 30.9844 40.0557 30.9961 40.2646C31.0078 40.4736 30.9404 40.6748 30.8037 40.8301L30.6533 41.0049ZM28.5322 39.1631C28.2363 39.499 27.7197 39.5322 27.3838 39.2373C27.2236 39.0957 27.1279 38.8975 27.1113 38.6797C27.0996 38.4629 27.167 38.2539 27.3115 38.0918L28.3359 36.9268C28.4756 36.7646 28.6758 36.668 28.8926 36.6543C28.9131 36.6533 28.9287 36.6523 28.9482 36.6523C29.1445 36.6523 29.332 36.7227 29.4805 36.8525C29.6406 36.9941 29.7402 37.1924 29.7529 37.4102C29.7646 37.6279 29.6973 37.8359 29.5527 37.998L28.5322 39.1631ZM26.4316 37.3193C26.1357 37.6553 25.623 37.6885 25.2871 37.3936C25.123 37.252 25.0273 37.0537 25.0146 36.8359C24.999 36.6191 25.0703 36.4102 25.2109 36.248L26.6953 34.5586C26.8398 34.3965 27.0352 34.2998 27.252 34.2861C27.2715 34.2852 27.2881 34.2842 27.3076 34.2842C27.5039 34.2842 27.6914 34.3545 27.8398 34.4844C28.1758 34.7793 28.2119 35.293 27.916 35.6289L26.4316 37.3193ZM24.2949 35.5186C23.999 35.8545 23.4863 35.8877 23.1504 35.5928C22.8145 35.2979 22.7783 34.7842 23.0742 34.4482L24.5586 32.7588C24.6982 32.5977 24.8984 32.501 25.1152 32.4863C25.1348 32.4854 25.1514 32.4844 25.1709 32.4844C25.3672 32.4844 25.5547 32.5547 25.7031 32.6846C26.0391 32.9795 26.0713 33.4932 25.7793 33.8291L24.2949 35.5186ZM25.7109 23.9004L21.001 31.6992L19.7363 30.9336L24.4424 23.1348L25.7109 23.9004ZM47.1387 32.0342C47.043 32.2705 46.8623 32.4551 46.6269 32.5537L44.8584 33.3008C44.7383 33.3516 44.6143 33.376 44.4902 33.376C44.1182 33.376 43.7656 33.1572 43.6103 32.7939L43.5742 32.707C43.1143 32.9297 42.9736 33.1523 42.7861 33.4561C42.5459 33.8389 42.2617 34.2959 41.4492 34.7656C41.8936 35.4873 41.8369 36.4434 41.249 37.1113C40.8613 37.5566 40.3086 37.7852 39.7607 37.7852C39.6328 37.7852 39.5088 37.7725 39.3848 37.749C39.333 38.1289 39.1729 38.4854 38.9131 38.7783C38.5254 39.2236 37.9766 39.4512 37.4248 39.4512C37.249 39.4512 37.0723 39.4277 36.9004 39.3809C36.8359 39.7207 36.6885 40.0478 36.4443 40.3252C36.0967 40.7217 35.6123 40.959 35.0801 40.9941C35.0361 40.9971 34.9922 40.998 34.9482 40.998C34.7598 40.998 34.5723 40.9697 34.3916 40.918C34.3271 41.251 34.1797 41.5723 33.9394 41.8457C33.5469 42.2939 33.0596 42.5186 32.5352 42.5186C32.1074 42.5186 31.6592 42.3672 31.2148 42.0674C30.875 42.3135 30.4707 42.4385 30.0664 42.4385C29.6104 42.4385 29.1504 42.2783 28.7783 41.9541C28.3701 41.5947 28.1504 41.1016 28.1221 40.5977C28.0537 40.6045 27.9863 40.6084 27.9219 40.6084C27.458 40.6084 26.9893 40.4463 26.6133 40.1162C26.2168 39.7686 25.9814 39.2861 25.9453 38.7578C25.9053 38.7598 25.8652 38.7646 25.8213 38.7646C25.3574 38.7646 24.8926 38.6025 24.5166 38.2725C24.1289 37.9336 23.8965 37.4678 23.8525 36.9561C23.7969 36.9609 23.7402 36.9648 23.6846 36.9648C23.2207 36.9648 22.752 36.8027 22.376 36.4727C21.5557 35.751 21.4756 34.4951 22.1963 33.6738L22.8965 32.876C22.792 32.7471 22.5439 32.6201 21.8877 32.5039C21.708 32.792 21.3955 32.9521 21.0791 32.9521C20.9111 32.9521 20.7432 32.9082 20.5869 32.8154L18.9424 31.8232C18.7266 31.6924 18.5703 31.4834 18.5098 31.2363C18.4502 30.9883 18.4902 30.7334 18.6182 30.5156L23.5557 22.3408C23.6875 22.123 23.8955 21.9697 24.1436 21.9082C24.3916 21.8477 24.6475 21.8857 24.8643 22.0176L26.5088 23.0098C26.7246 23.1406 26.877 23.3496 26.9414 23.5967C26.9932 23.8184 26.9697 24.0469 26.8691 24.248C27.8418 24.8848 28.6016 24.8242 29.2744 24.7686C29.7227 24.7314 30.2109 24.6924 30.6426 24.9189C31.0303 24.5967 31.4785 24.248 32.0146 23.8984C32.0303 23.8867 32.0508 23.876 32.0703 23.8662C33.207 23.2881 34.4512 23.582 35.7676 23.8936C37.0918 24.208 38.4561 24.5312 39.9209 24.0605L39.8926 23.9971C39.6885 23.5137 39.917 22.9531 40.4004 22.749L42.1689 22.002C42.4014 21.9023 42.6611 21.9014 42.8975 21.9971C43.1338 22.0928 43.3174 22.2744 43.418 22.5088L47.1357 31.3047C47.2353 31.5391 47.2353 31.7978 47.1387 32.0342ZM48.3398 32.1963C48.3398 40.7383 41.3896 47.6885 32.8467 47.6885C24.3037 47.6885 17.3525 40.7383 17.3525 32.1963C17.3525 23.6543 24.3027 16.7041 32.8457 16.7041C41.3887 16.7041 48.3398 23.6543 48.3398 32.1963ZM24.6592 46.7061C19.6016 43.8418 16.1846 38.4111 16.1846 32.1963C16.1846 23.5352 22.8232 16.3984 31.2822 15.6064V8.71484C31.2822 7.37598 30.1895 6.28613 28.8535 6.28613H26.0801V12.6064C26.0801 12.8213 25.9639 13.0205 25.7725 13.1221C25.584 13.2236 25.3525 13.2139 25.1719 13.0957L21.4463 10.6396L17.7207 13.0957C17.6211 13.1602 17.5088 13.1924 17.3965 13.1924C17.3008 13.1924 17.2041 13.1689 17.1201 13.1221C16.9277 13.0205 16.8076 12.8213 16.8076 12.6064V6.28711H4.08789C2.74707 6.28711 1.65918 7.37598 1.65918 8.71582V44.2793C1.65918 45.6182 2.74805 46.707 4.08789 46.707H24.6592V46.7061ZM17.9805 11.5186V6.28711H24.9072V11.5186L21.7705 9.44824C21.5742 9.31934 21.3184 9.31934 21.1221 9.44824L17.9805 11.5186ZM5.99609 5.11426V4.73926C5.99609 3.40039 7.08496 2.31055 8.4248 2.31055H33.1894C34.5264 2.31055 35.6182 3.40039 35.6182 4.73926V15.7637C34.7139 15.6123 33.7891 15.5322 32.8447 15.5322C32.7129 15.5322 32.5811 15.5342 32.4521 15.5371V8.71484C32.4521 6.72949 30.8359 5.11426 28.8506 5.11426H5.99609ZM49.5117 32.1963C49.5117 41.3848 42.0332 48.8603 32.8457 48.8603C30.8691 48.8603 28.9687 48.5127 27.2041 47.877C27.1963 47.877 27.1924 47.8779 27.1846 47.8779H4.08789C2.10352 47.8779 0.486328 46.2627 0.486328 44.2773V8.71484C0.486328 6.72949 2.10254 5.11426 4.08789 5.11426H4.82422V4.73926C4.82422 2.75391 6.44043 1.13965 8.42578 1.13965H33.1904C35.1748 1.13965 36.792 2.75488 36.792 4.73926V16.0049C44.082 17.7812 49.5117 24.3662 49.5117 32.1963ZM4.93164 17.7471H22.2461C22.5703 17.7471 22.8301 17.4844 22.8301 17.1611C22.8301 16.8379 22.5703 16.5752 22.2461 16.5752H4.93164C4.60742 16.5752 4.34375 16.8379 4.34375 17.1611C4.34375 17.4844 4.60742 17.7471 4.93164 17.7471ZM4.93164 23.9707C4.60742 23.9707 4.34375 23.708 4.34375 23.3848C4.34375 23.0615 4.60742 22.7988 4.93164 22.7988H16.6963C17.0166 22.7988 17.2803 23.0615 17.2803 23.3848C17.2803 23.708 17.0166 23.9707 16.6963 23.9707H4.93164ZM4.93164 30.1943C4.60742 30.1943 4.34375 29.9316 4.34375 29.6084C4.34375 29.2852 4.60742 29.0225 4.93164 29.0225H14.6309C14.9551 29.0225 15.2187 29.2852 15.2187 29.6084C15.2187 29.9316 14.9551 30.1943 14.6309 30.1943H4.93164ZM15.3955 35.832C15.3955 36.1553 15.1357 36.418 14.8115 36.418H4.93164C4.60742 36.418 4.34375 36.1562 4.34375 35.832C4.34375 35.5088 4.60742 35.2461 4.93164 35.2461H14.8115C15.1357 35.2461 15.3955 35.5088 15.3955 35.832Z" fill="#DCDBDE"/>
</svg>
