<svg width="50" height="50" viewBox="0 0 50 50" fill="none" xmlns="http://www.w3.org/2000/svg">
<g clip-path="url(#clip0_1192_3771)">
<path d="M44.0704 38.9982C42.0266 38.9826 39.9847 38.9982 37.9429 38.9358C37.2382 38.9163 37.2597 39.2911 37.2616 39.781C37.2616 42.6037 37.246 45.4244 37.2792 48.2471C37.2792 48.9088 37.1308 49.1548 36.4281 49.1294C34.9699 49.0748 33.5 49.0962 32.0496 49.1294C31.5558 49.1294 31.3645 48.9947 31.3664 48.4735C31.3879 44.3859 31.382 40.2983 31.3879 36.2107C31.3879 35.3128 31.8408 34.61 32.3873 33.9522C33.1565 33.9405 33.9295 33.8722 34.6908 33.9327C35.415 33.9912 35.698 33.7199 35.6551 33.0289C36.8263 33.0289 37.9976 32.9957 39.1688 33.0289C39.6919 33.0425 39.8286 32.859 39.8227 32.3574C39.7993 30.2452 39.7954 28.1331 39.8227 26.021C39.8227 25.4783 39.6119 25.3807 39.1336 25.3846C37.0547 25.4061 34.9738 25.3846 32.8871 25.4041C32.6639 25.4168 32.4408 25.38 32.2336 25.2963C32.0263 25.2126 31.8402 25.0841 31.6885 24.92C29.4983 22.6986 27.2925 20.4934 25.071 18.3045C24.6806 17.9141 24.6377 17.6954 25.0554 17.3089C25.8655 16.5613 26.6522 15.7805 27.3979 14.9665C27.8098 14.5136 28.0596 14.4707 28.5164 14.945C30.078 16.5633 31.6865 18.1151 33.2521 19.7197C33.4289 19.9246 33.6499 20.0868 33.8984 20.1939C34.1469 20.3011 34.4165 20.3506 34.6868 20.3385C37.0469 20.2995 39.4069 20.3229 41.8978 20.3229C38.142 18.5056 36.7599 16.2236 37.4334 13.112C37.7207 11.8173 38.4353 10.657 39.4621 9.8178C40.489 8.9786 41.7684 8.50937 43.0944 8.48564C44.4207 8.4701 45.7144 8.8972 46.7708 9.69938C47.8272 10.5016 48.5859 11.633 48.9271 12.9149C49.7079 16.0069 48.3415 18.3338 44.6326 20.2663C48.3591 20.5923 49.1223 21.4375 49.1223 25.1894C49.1223 28.4064 49.1223 31.6227 49.1223 34.8384C49.1223 37.3351 48.402 38.2701 45.999 38.9202C45.8817 38.9744 45.7742 39.0476 45.6808 39.1368C45.1772 38.8109 44.615 39.0041 44.0704 38.9982Z" fill="#E46B5E"/>
<path d="M16.7937 33.9248C17.5745 34.8345 17.7951 35.8925 17.7814 37.0793C17.7404 40.7883 17.7482 44.4776 17.7814 48.1768C17.7814 48.9322 17.5862 49.2055 16.8054 49.1684C15.478 49.106 14.1447 49.1138 12.8154 49.1684C12.099 49.1958 11.8628 48.9888 11.8725 48.2471C11.9155 45.4888 11.8725 42.7305 11.9077 39.9723C11.9194 39.2051 11.7125 38.9631 10.9316 38.9865C8.97958 39.0451 7.03923 39.0216 5.09302 39.0314C4.54294 38.9338 3.97995 38.9338 3.42987 39.0314C1.80966 38.762 0.572056 38.0358 0.11137 36.3278C0.0201746 35.916 -0.0152634 35.4939 0.00597516 35.0726C0.00597516 31.5316 0.00597516 27.9906 0.00597516 24.4495C0.00597516 21.623 1.26895 20.3365 4.07406 20.2995C4.20289 20.2995 4.33174 20.2878 4.74362 20.2682C2.93406 19.669 1.62033 18.8061 0.810222 17.3265C0.000118027 15.8468 -0.220462 14.2813 0.300738 12.6415C1.13817 10.0004 3.54506 8.31577 6.20571 8.44656C9.17284 8.59101 11.3962 10.7402 11.8667 13.6937C12.2981 16.4266 10.6583 18.8335 7.1622 20.3014C7.79076 20.3014 8.1519 20.2897 8.51108 20.3014C9.39836 20.3217 10.2439 20.6824 10.8725 21.3088C11.5012 21.9353 11.8648 22.7796 11.8881 23.6668C11.9291 24.7697 11.9389 25.8765 11.8881 26.9853C11.855 27.6939 12.0482 27.9613 12.8017 27.932C14.7538 27.8812 16.7058 27.9418 18.6579 27.9008C19.345 27.8871 19.5929 28.096 19.5324 28.785C19.4817 29.3316 19.5207 29.888 19.5187 30.4404C18.6501 30.4404 17.7795 30.4521 16.9108 30.4521C15.2066 30.4521 15.2066 30.4521 15.2652 32.1543C14.9122 32.1864 14.5574 32.1943 14.2033 32.1777C13.5201 32.1035 13.5786 32.5467 13.6001 32.9742C13.6216 33.4017 13.4244 33.919 14.2013 33.8916C15.0505 33.8584 15.9231 33.9092 16.7937 33.9248Z" fill="#84D3F0"/>
<path d="M17.7765 16.0342C17.7765 14.1661 17.755 12.54 17.7901 10.9159C17.8019 10.3303 17.6223 10.0707 17.0093 10.1468C16.7495 10.1684 16.4883 10.1684 16.2285 10.1468C15.0748 10.1038 14.4326 9.47333 14.4228 8.30404C14.4033 6.15808 14.4033 4.01082 14.4228 1.86225C14.4228 0.659787 15.0924 0.0058535 16.3163 0.00194939C21.8107 -0.00716021 27.3064 -0.00716021 32.8034 0.00194939C34.0625 0.00194939 34.7028 0.669553 34.7106 1.95401C34.7223 4.0362 34.7223 6.1184 34.7106 8.20059C34.7106 9.52994 34.0703 10.1526 32.7175 10.1526C30.051 10.1526 27.3845 10.178 24.7141 10.1409C24.3959 10.1186 24.0767 10.1692 23.7811 10.289C23.4854 10.4087 23.221 10.5945 23.008 10.832C21.5732 12.337 20.0799 13.7874 18.6061 15.2573C18.3972 15.4798 18.161 15.675 17.7765 16.0342ZM24.4779 7.61887C26.7852 7.61887 29.0925 7.59545 31.3999 7.63449C32.0441 7.64425 32.2295 7.4549 32.21 6.81853C32.1905 6.23291 32.1768 5.87959 31.3999 5.88544C26.8451 5.92188 22.2948 5.92188 17.7492 5.88544C16.9683 5.88544 16.9683 6.22901 16.941 6.81853C16.9195 7.45295 17.105 7.64425 17.7492 7.63449C19.9921 7.59545 22.235 7.61887 24.4779 7.61887ZM28.056 2.54352C26.8262 2.54352 25.5945 2.58452 24.3647 2.52791C23.6112 2.49278 23.7264 2.9515 23.7283 3.39657C23.7303 3.84164 23.6248 4.29257 24.3705 4.28086C26.765 4.24182 29.1615 4.24182 31.56 4.28086C32.3135 4.29452 32.1885 3.83579 32.1905 3.39463C32.1924 2.95346 32.3115 2.49081 31.5541 2.52985C30.3907 2.58061 29.2233 2.53767 28.056 2.53767V2.54352ZM19.5255 4.26524C20.1697 4.26524 20.8178 4.23791 21.4619 4.26524C22.2584 4.30818 22.0124 3.73623 22.0359 3.33801C22.0593 2.93979 22.1647 2.49667 21.4503 2.52205C20.2263 2.5689 18.9965 2.57866 17.7726 2.52205C17.0679 2.48887 16.9195 2.73678 16.9273 3.39267C16.9351 4.04856 17.0562 4.34722 17.7726 4.27499C18.3582 4.21448 18.9438 4.26134 19.5255 4.25939V4.26524Z" fill="#FCC375"/>
<path d="M16.7943 33.9249C15.9237 33.9092 15.0511 33.8585 14.1825 33.8897C13.4016 33.917 13.5968 33.3861 13.5812 32.9722C13.5656 32.5584 13.5012 32.1016 14.1844 32.1758C14.5385 32.1924 14.8933 32.1845 15.2463 32.1524H23.4977C27.2163 32.1524 30.935 32.1992 34.6537 32.1524C35.372 32.1426 35.6141 32.3847 35.6551 33.0132C35.698 33.7043 35.415 33.9756 34.6908 33.917C33.9295 33.8565 33.1565 33.917 32.3874 33.9366C30.2401 33.7648 28.1065 33.9112 25.967 33.8565C25.4634 33.8448 25.3951 34.1025 25.397 34.5222C25.4048 38.8727 25.4048 43.2251 25.397 47.5795C25.397 48.087 25.5512 48.2725 26.0588 48.2451C26.6737 48.212 27.2964 48.2842 27.9074 48.2256C28.6218 48.1573 28.8639 48.372 28.858 49.1275C28.858 49.8458 28.6062 49.9708 27.9601 49.9591C25.6547 49.9239 23.3474 49.92 21.042 49.9591C20.3802 49.9708 20.2924 49.6975 20.3275 49.1548C20.3588 48.6707 20.228 48.1163 21.0264 48.2334C21.0588 48.2364 21.0915 48.2364 21.124 48.2334C21.9634 48.1905 23.0604 48.5848 23.5738 48.0812C24.1262 47.5366 23.7436 46.4258 23.7475 45.563C23.769 41.9908 23.73 38.4165 23.7788 34.8443C23.7788 34.0068 23.527 33.8116 22.7383 33.839C20.755 33.9209 18.7737 33.9053 16.7943 33.9249Z" fill="#363447"/>
<path d="M23.4967 32.1562H15.2454C15.1868 30.456 15.1868 30.456 16.891 30.454C17.7597 30.454 18.6303 30.454 19.4989 30.4423C21.6638 30.8737 23.081 30.0519 24.0629 28.0549C24.7441 26.6709 25.7748 25.4626 26.6259 24.1508C26.9753 23.6179 27.2232 23.1963 27.9826 23.7097C28.7771 24.2465 28.3515 24.6584 28.0275 25.1444C26.6493 27.2266 25.2725 29.3049 23.8969 31.3793C23.7499 31.631 23.6163 31.8904 23.4967 32.1562Z" fill="#302B2A"/>
<path d="M3.42577 39.0333C3.97586 38.9357 4.53882 38.9357 5.0889 39.0333C5.0889 42.1826 5.0889 45.3313 5.0889 48.4793C5.0889 50.041 5.08892 50.041 3.44333 49.9043C3.44829 49.8958 3.45104 49.8862 3.45131 49.8764C3.45159 49.8666 3.4494 49.8569 3.44493 49.8481C3.44046 49.8394 3.43385 49.8319 3.42572 49.8263C3.4176 49.8208 3.40822 49.8174 3.39844 49.8165C3.41015 46.2208 3.41926 42.6264 3.42577 39.0333Z" fill="#363447"/>
<path d="M44.0703 38.9982C44.6149 38.9982 45.1771 38.803 45.6983 39.1271C45.6983 42.7032 45.7035 46.282 45.714 49.8634V49.8478C45.6593 49.8809 45.6066 49.9376 45.548 49.9434C44.0625 50.0957 44.0625 50.0957 44.0625 48.618C44.0651 45.4075 44.0677 42.2009 44.0703 38.9982Z" fill="#363447"/>
<path d="M3.39452 49.8126C3.4043 49.8136 3.41368 49.817 3.4218 49.8225C3.42993 49.828 3.43654 49.8355 3.44101 49.8443C3.44548 49.853 3.44767 49.8627 3.4474 49.8726C3.44712 49.8824 3.44437 49.892 3.43941 49.9005L3.36719 49.879L3.39452 49.8126Z" fill="#84D3F0"/>
<path d="M24.478 7.61888C22.2351 7.61888 19.9883 7.59545 17.7492 7.6345C17.1051 7.64426 16.9196 7.45296 16.9411 6.81854C16.9606 6.23292 16.9743 5.87959 17.7492 5.88545C22.304 5.92189 26.8543 5.92189 31.4 5.88545C32.1808 5.88545 32.1906 6.22902 32.2101 6.81854C32.2296 7.45491 32.0441 7.64426 31.4 7.6345C29.0926 7.59545 26.7853 7.61888 24.478 7.61888Z" fill="#363447"/>
<path d="M28.0578 2.53767C29.229 2.53767 30.4002 2.58061 31.5558 2.52205C32.3132 2.48301 32.1922 2.94564 32.1922 3.38681C32.1922 3.82797 32.3152 4.28671 31.5617 4.27305C29.1646 4.23531 26.7681 4.23531 24.3723 4.27305C23.6266 4.28476 23.732 3.83578 23.7301 3.38876C23.7281 2.94174 23.6129 2.48496 24.3664 2.52009C25.5962 2.57866 26.828 2.53767 28.0578 2.53767Z" fill="#363447"/>
<path d="M19.5261 4.25939C18.9405 4.25939 18.3549 4.2145 17.7829 4.27306C17.0665 4.34529 16.9435 4.031 16.9377 3.39073C16.9318 2.75045 17.0782 2.48692 17.7829 2.5201C19.0068 2.58062 20.2366 2.57086 21.4606 2.5201C22.1653 2.49473 22.0579 2.93394 22.0462 3.33606C22.0345 3.73819 22.2687 4.31209 21.4723 4.26329C20.8184 4.23206 20.1703 4.25939 19.5261 4.25939Z" fill="#363447"/>
</g>
<defs>
<clipPath id="clip0_1192_3771">
<rect width="49.1469" height="50" fill="white"/>
</clipPath>
</defs>
</svg>
