<svg width="50" height="50" viewBox="0 0 50 50" fill="none" xmlns="http://www.w3.org/2000/svg">
<g clip-path="url(#clip0_1192_3738)">
<path d="M39.5833 8.33333H37.2917C36.8081 5.98211 35.5288 3.86947 33.6693 2.3515C31.8098 0.833521 29.4838 0.00303026 27.0833 0L22.9167 0C20.5162 0.00303026 18.1902 0.833521 16.3307 2.3515C14.4712 3.86947 13.1919 5.98211 12.7083 8.33333H10.4167C7.65501 8.33664 5.00741 9.43517 3.05462 11.388C1.10184 13.3407 0.00330804 15.9883 0 18.75L0 25H50V18.75C49.9967 15.9883 48.8982 13.3407 46.9454 11.388C44.9926 9.43517 42.345 8.33664 39.5833 8.33333ZM17.05 8.33333C17.4793 7.11894 18.2734 6.06686 19.3235 5.32102C20.3737 4.57517 21.6286 4.17201 22.9167 4.16667H27.0833C28.3714 4.17201 29.6263 4.57517 30.6765 5.32102C31.7266 6.06686 32.5207 7.11894 32.95 8.33333H17.05Z" fill="#E6A675"/>
<path d="M27.0833 31.25C27.0833 31.8025 26.8638 32.3324 26.4731 32.7231C26.0824 33.1138 25.5525 33.3333 25 33.3333C24.4475 33.3333 23.9176 33.1138 23.5269 32.7231C23.1362 32.3324 22.9167 31.8025 22.9167 31.25V29.1666H0V39.5833C0.00330804 42.3449 1.10184 44.9925 3.05462 46.9453C5.00741 48.8981 7.65501 49.9967 10.4167 50H39.5833C42.345 49.9967 44.9926 48.8981 46.9454 46.9453C48.8982 44.9925 49.9967 42.3449 50 39.5833V29.1666H27.0833V31.25Z" fill="#FFA159"/>
</g>
<defs>
<clipPath id="clip0_1192_3738">
<rect width="50" height="50" fill="white"/>
</clipPath>
</defs>
</svg>
