<svg width="44" height="50" viewBox="0 0 44 50" fill="none" xmlns="http://www.w3.org/2000/svg">
<g clip-path="url(#clip0_1192_3721)">
<path d="M43.7513 39.6987C43.7395 44.4752 40.5196 48.5192 35.7943 49.6972C33.5641 50.245 31.2131 50.0369 29.116 49.1061C27.0189 48.1752 25.2965 46.5753 24.2233 44.5612C23.7996 43.7583 23.3385 43.559 22.4931 43.5629C15.9903 43.5942 9.49937 43.5825 3.00248 43.5805C0.649656 43.5805 -0.311977 42.4083 0.0880437 40.0914C1.01223 34.7581 3.43797 30.261 7.73572 26.8793C15.2888 20.9424 25.5534 21.716 32.3045 28.6864C32.4816 28.8899 32.7 29.0541 32.9455 29.1682C33.191 29.2824 33.4581 29.3438 33.7292 29.3486C39.4694 29.6514 43.7651 34.1095 43.7513 39.6987ZM33.3607 30.4309C32.1358 30.4216 30.9213 30.6533 29.7873 31.1125C28.6534 31.5717 27.6226 32.2494 26.7546 33.1062C25.8867 33.9631 25.1988 34.9821 24.7308 36.1043C24.2628 37.2266 24.024 38.4297 24.0282 39.644C24.0282 44.7526 28.188 48.9353 33.3015 48.9587C35.7943 48.9556 38.1843 47.9739 39.9487 46.2283C41.7132 44.4827 42.7085 42.1153 42.7168 39.644C42.7147 38.4295 42.4709 37.2272 41.9992 36.1063C41.5275 34.9854 40.8372 33.9677 39.968 33.1118C39.0988 32.2559 38.0677 31.5785 36.9339 31.1184C35.8001 30.6584 34.5858 30.4248 33.3607 30.4309Z" fill="#156CA6"/>
<path d="M19.0815 3.60823e-05C21.9213 0.023267 24.6361 1.16173 26.6307 3.16592C28.6253 5.17011 29.7371 7.87652 29.7224 10.692C29.6872 13.489 28.5432 16.1598 26.5376 18.1273C24.5321 20.0948 21.8261 21.2007 19.0046 21.2062C16.1654 21.1922 13.4472 20.0644 11.4444 18.0693C9.44151 16.0741 8.31689 13.374 8.31641 10.5591C8.33931 7.74608 9.48447 5.05637 11.5016 3.07781C13.5188 1.09924 16.2439 -0.00728335 19.0815 3.60823e-05Z" fill="#156CA6"/>
<path d="M33.3598 30.4309C34.5849 30.4247 35.7992 30.6584 36.9331 31.1184C38.0669 31.5784 39.098 32.2559 39.9672 33.1118C40.8364 33.9677 41.5266 34.9853 41.9983 36.1063C42.47 37.2272 42.7139 38.4294 42.716 39.644C42.7056 42.1132 41.7099 44.478 39.9465 46.2218C38.1831 47.9656 35.7953 48.9468 33.3047 48.9509C28.1812 48.9274 24.0273 44.7448 24.0313 39.6362C24.0281 38.4228 24.2676 37.2209 24.7358 36.0998C25.204 34.9788 25.8917 33.9608 26.7592 33.1049C27.6266 32.2489 28.6566 31.5718 29.7895 31.1129C30.9225 30.6539 32.136 30.4221 33.3598 30.4309ZM33.4722 43.77C35.2752 43.7289 36.5679 42.8459 37.7029 41.6581C39.299 39.9839 39.303 39.644 37.7482 37.9346C34.9363 34.846 31.7085 34.7346 28.9951 37.792C27.1644 39.855 27.2709 39.3881 29.0069 41.3631C30.1932 42.717 31.6297 43.7094 33.4722 43.77Z" fill="#85C5EC"/>
<path d="M33.4731 43.77C31.6306 43.7094 30.1941 42.717 29.0078 41.3632C27.2718 39.3881 27.1654 39.855 28.996 37.792C31.7095 34.7347 34.9372 34.846 37.7492 37.9346C39.3039 39.644 39.3 39.984 37.7039 41.6582C36.5688 42.846 35.2762 43.729 33.4731 43.77ZM33.5243 42.7932C34.614 42.842 35.4949 42.3536 36.2969 41.7168C38.2359 40.1871 38.2674 39.6772 36.4939 38.005C36.3521 37.8702 36.2082 37.7373 36.0585 37.6143C34.3303 36.1901 32.4701 36.1432 30.6887 37.4873C30.0677 37.9649 29.5166 38.5257 29.0512 39.1537C28.9054 39.349 28.6729 39.5444 28.9172 39.8316C30.1488 41.2968 31.4139 42.6955 33.5243 42.7971V42.7932Z" fill="#156CA6"/>
<path d="M33.5223 42.7972C31.4118 42.6956 30.1467 41.2968 28.9191 39.8375C28.6747 39.5445 28.9072 39.353 29.0531 39.1596C29.5198 38.5321 30.0722 37.9719 30.6945 37.4951C32.468 36.1511 34.3361 36.198 36.0643 37.6221C36.214 37.7452 36.3579 37.8781 36.4998 38.0129C38.2634 39.6832 38.2378 40.193 36.3027 41.7247C35.4869 42.3576 34.612 42.846 33.5223 42.7972ZM35.3352 39.7847C35.3389 39.5172 35.2885 39.2516 35.1869 39.0037C35.0853 38.7557 34.9346 38.5305 34.7438 38.3413C34.5529 38.1521 34.3257 38.0027 34.0756 37.902C33.8256 37.8013 33.5577 37.7513 33.2878 37.755C32.7591 37.7715 32.2572 37.9895 31.8865 38.3635C31.5158 38.7376 31.3049 39.2389 31.2975 39.7633C31.3075 40.2857 31.516 40.7851 31.8814 41.1618C32.2467 41.5384 32.7419 41.7646 33.2681 41.795C33.5382 41.8023 33.8071 41.7557 34.0586 41.6577C34.3102 41.5598 34.5393 41.4126 34.7322 41.225C34.9251 41.0374 35.0779 40.8132 35.1815 40.5657C35.2851 40.3183 35.3374 40.0527 35.3352 39.7847Z" fill="#85C5EC"/>
<path d="M35.3345 39.7847C35.3365 40.0525 35.284 40.3179 35.1803 40.5651C35.0766 40.8123 34.9237 41.0363 34.7308 41.2237C34.5379 41.4112 34.309 41.5581 34.0575 41.6559C33.8061 41.7537 33.5374 41.8004 33.2674 41.793C32.7412 41.7626 32.246 41.5365 31.8807 41.1598C31.5154 40.7832 31.3069 40.2837 31.2969 39.7613C31.3042 39.2369 31.5152 38.7356 31.8859 38.3616C32.2566 37.9875 32.7584 37.7695 33.2871 37.753C33.5572 37.7493 33.8253 37.7994 34.0755 37.9002C34.3257 38.001 34.5529 38.1505 34.7438 38.34C34.9347 38.5294 35.0854 38.7549 35.1868 39.003C35.2883 39.2512 35.3385 39.517 35.3345 39.7847ZM33.3521 40.8338C33.9985 40.7928 34.4103 40.4333 34.4103 39.7984C34.4103 39.1225 33.9768 38.6868 33.2852 38.7142C32.6526 38.7396 32.2723 39.1459 32.2841 39.8082C32.2959 40.4704 32.6763 40.8025 33.3521 40.8338Z" fill="#156CA6"/>
<path d="M33.3534 40.8338C32.6775 40.8025 32.2952 40.4802 32.2853 39.8081C32.2755 39.1361 32.6538 38.7395 33.2864 38.7141C33.978 38.6868 34.4116 39.1224 34.4116 39.7983C34.4116 40.4254 33.9997 40.7927 33.3534 40.8338Z" fill="#85C5EC"/>
</g>
<defs>
<clipPath id="clip0_1192_3721">
<rect width="43.75" height="50" fill="white"/>
</clipPath>
</defs>
</svg>
