<svg width="25" height="35" viewBox="0 0 25 35" fill="none" xmlns="http://www.w3.org/2000/svg">
<g clip-path="url(#clip0_1205_22727)">
<path d="M24.7732 34.1094H0.890625V0.109375H18.8441L24.7732 5.92077V34.1094Z" fill="#222222"/>
<path d="M18.8438 5.99643H24.7728L18.8438 0.109375V5.99643Z" fill="#C9C9C9"/>
<path d="M0.832031 26.7969H24.832V34.1076H0.832031V26.7969Z" fill="#E4342B"/>
<path d="M7.63672 28.3867H9.22716C10.0444 28.3867 10.5988 28.8435 10.5988 29.5668C10.5988 30.3997 9.96961 30.7767 9.20759 30.7767H8.46864V32.2024H7.63672V28.3867ZM8.46864 30.1221H9.10342C9.48793 30.1221 9.75988 29.9756 9.75988 29.5855C9.75988 29.1954 9.47325 29.0448 9.1209 29.0448H8.46864V30.1221Z" fill="#0D0D0D"/>
<path d="M11.3359 28.3867H12.8607C13.9792 28.3867 14.7126 29.119 14.7126 30.2477C14.7126 31.3584 14.0023 32.2045 12.825 32.2045H11.3359V28.3867ZM12.1672 31.5375H12.7908C13.5276 31.5375 13.8541 30.9932 13.8541 30.2498C13.8541 29.6251 13.5486 29.0538 12.7957 29.0538H12.1665L12.1672 31.5375Z" fill="#0D0D0D"/>
<path d="M15.5508 28.3867H18.2346V29.0635H16.3624V29.9985H18.1165V30.6753H16.3624V32.2024H15.5508V28.3867Z" fill="#0D0D0D"/>
<path d="M5.98047 15.4883H19.7527V16.7377H5.98047V15.4883Z" fill="#C9C9C9"/>
<path d="M5.91016 18.4727H19.7523V19.7221H5.91016V18.4727Z" fill="#C9C9C9"/>
<path d="M5.91016 21.457H14.7551V22.7065H5.91016V21.457Z" fill="#C9C9C9"/>
<path d="M5.875 9.52344H19.7521V13.7758H5.875V9.52344Z" fill="#C9C9C9"/>
</g>
<defs>
<clipPath id="clip0_1205_22727">
<rect width="24" height="34" fill="white" transform="translate(0.832031 0.109375)"/>
</clipPath>
</defs>
</svg>
