<svg width="51" height="36" viewBox="0 0 51 36" fill="none" xmlns="http://www.w3.org/2000/svg">
<g clip-path="url(#clip0_1192_3956)">
<path d="M42.3345 16.1217C40.5031 16.906 38.7463 17.6648 36.9933 18.4256C33.3757 19.9943 29.7561 21.5511 26.1483 23.1315C25.8278 23.286 25.4766 23.3662 25.1208 23.3662C24.7651 23.3662 24.4139 23.286 24.0934 23.1315C16.5117 19.8217 8.92212 16.5256 1.32473 13.2433C0.112966 12.7178 -0.33016 11.7766 0.258076 10.8805C0.508514 10.541 0.847747 10.277 1.23847 10.1178C8.91036 6.77269 16.594 3.44851 24.2895 0.14524C24.8607 -0.0637148 25.4887 -0.0553413 26.0542 0.168769C33.7208 3.4472 41.3659 6.78053 49.0188 10.0923C49.6992 10.3864 50.2777 10.8256 50.1953 11.5923C50.1424 12.0786 49.7679 12.5531 49.4581 12.9648C49.36 13.0943 48.8483 13.1335 48.7836 13.0374C47.9051 11.759 46.4894 12.057 45.2953 11.8923C38.7679 10.9962 32.2306 10.1864 25.6973 9.34328C24.5404 9.19426 23.6992 9.71779 23.5777 10.6943C23.4639 11.6178 24.1188 12.3041 25.2463 12.459C31.7169 13.3001 38.1875 14.155 44.6581 14.9727C45.3188 15.055 45.5522 15.2845 45.5483 15.9531C45.5306 21.506 45.5483 27.0609 45.5365 32.6198C45.5365 33.7158 44.9482 34.3845 44.0169 34.4119C43.0855 34.4394 42.413 33.7256 42.411 32.5962C42.4006 27.3675 42.4006 22.1387 42.411 16.9099C42.3777 16.6825 42.3541 16.4609 42.3345 16.1217Z" fill="#454F5B"/>
<path d="M40.7504 24.1412C40.7504 25.251 40.8739 26.3784 40.7248 27.4745C40.4445 29.5235 39.2327 31.0588 37.6425 32.302C35.0209 34.3549 31.9562 35.3157 28.717 35.749C24.4817 36.3176 20.3112 35.9784 16.3014 34.3921C14.0876 33.5176 12.0954 32.2921 10.6837 30.3039C9.84745 29.1637 9.40868 27.7804 9.43469 26.3667C9.46018 24.7333 9.43469 23.098 9.43469 21.4647C9.43469 20.4294 9.63074 20.2882 10.5876 20.702C14.5954 22.4294 18.617 24.1294 22.5954 25.9216C24.3327 26.7059 25.9406 26.6902 27.67 25.9118C31.5915 24.1471 35.5503 22.4686 39.4954 20.7588C40.6268 20.2686 40.7955 20.3804 40.7994 21.602C40.7994 22.451 40.7994 23.3 40.7994 24.151L40.7504 24.1412Z" fill="#49617E"/>
</g>
<defs>
<clipPath id="clip0_1192_3956">
<rect width="50.1863" height="36" fill="white"/>
</clipPath>
</defs>
</svg>
