<svg width="24" height="24" viewBox="0 0 24 24" fill="none" xmlns="http://www.w3.org/2000/svg">
<path d="M7.75325 3.75318C7.79073 3.22002 7.77387 2.73184 7.86757 2.26521C8.14117 0.89812 9.2459 0.0117126 10.6289 0.00421653C11.5497 -0.00140551 12.4711 -0.00140551 13.3931 0.00421653C13.7646 0.00149069 14.133 0.0724399 14.4769 0.212955C14.8208 0.353471 15.1335 0.560767 15.3968 0.822861C15.6601 1.08496 15.8688 1.39665 16.011 1.73991C16.1531 2.08318 16.2257 2.45121 16.2247 2.82273C16.2247 3.11601 16.2247 3.40836 16.2247 3.75224C17.5571 3.75224 18.8483 3.73912 20.1395 3.75974C20.5437 3.76277 20.9457 3.81917 21.3352 3.92746C22.1059 4.14912 22.7834 4.61618 23.2647 5.25777C23.7459 5.89935 24.0048 6.68043 24.0019 7.48246C24.0094 10.1061 24.0094 12.7297 24.0019 15.3533C24.0019 16.0354 23.6374 16.4449 23.0527 16.4374C22.468 16.4299 22.1316 16.0195 22.1307 15.3261C22.1307 14.1867 22.1307 13.0483 22.1307 11.8527C21.9911 11.922 21.8814 11.9632 21.7849 12.0251C20.7542 12.6753 19.7357 13.3369 18.7031 13.9778C18.4679 14.124 18.3442 14.2814 18.3733 14.5737C18.3972 14.8696 18.3972 15.167 18.3733 15.4629C18.3657 15.6998 18.2658 15.9243 18.0949 16.0886C17.9241 16.2528 17.6957 16.3437 17.4588 16.3418C17.3374 16.3471 17.2163 16.328 17.1025 16.2856C16.9886 16.2432 16.8845 16.1785 16.7962 16.0951C16.7078 16.0118 16.6371 15.9115 16.5882 15.8004C16.5393 15.6892 16.5132 15.5694 16.5114 15.4479C16.4871 15.0895 16.4871 14.7298 16.5114 14.3713C16.5367 14.0743 16.4074 13.9272 16.1685 13.7885C13.3378 12.1516 10.5343 12.2368 7.75981 13.9178C7.692 13.9701 7.63546 14.0356 7.59359 14.1103C7.55172 14.185 7.52539 14.2674 7.51619 14.3526C7.47965 14.7086 7.51619 15.0703 7.50026 15.4292C7.4759 15.9708 7.08985 16.34 6.57075 16.3418C6.05165 16.3437 5.56722 15.9567 5.65436 15.4386C5.83239 14.3807 5.29549 13.8757 4.45968 13.4278C3.59763 12.9658 2.79743 12.3896 1.91571 11.8292C1.90165 12.0063 1.88197 12.1338 1.88197 12.2621C1.88197 14.8551 1.88197 17.4475 1.88197 20.0393C1.88197 21.3595 2.65219 22.1194 3.98461 22.1204C9.32555 22.1204 14.6665 22.1204 20.0074 22.1204C21.3014 22.1204 21.9826 21.4982 22.1297 20.1967C22.1897 19.6635 22.5926 19.2934 23.0958 19.3112C23.6168 19.329 23.9897 19.7404 24 20.3073C24.0337 22.2038 22.3509 23.9756 20.4178 23.9831C14.812 24.0056 9.20561 24.0056 3.59857 23.9831C1.69926 23.9766 0.0276417 22.3068 0.0173346 20.4085C-0.0057782 16.0514 -0.0057782 11.6946 0.0173346 7.33816C0.0276417 5.42105 1.71613 3.77754 3.64261 3.75599C5.00502 3.73725 6.36274 3.75318 7.75325 3.75318ZM12.0194 5.62719C9.30212 5.62719 6.58481 5.62157 3.86749 5.62719C2.68686 5.62719 1.89978 6.41708 1.88291 7.58834C1.87729 7.91536 1.89322 8.24424 1.88291 8.57126C1.87006 8.782 1.9056 8.99289 1.9868 9.18778C2.06801 9.38267 2.19273 9.5564 2.35141 9.69567C2.64427 9.97437 2.95747 10.2309 3.28842 10.4631C4.11767 11.0168 4.98628 11.5135 5.79772 12.0916C6.26623 12.4233 6.61854 12.4458 7.11702 12.1338C8.36279 11.3524 9.78007 10.8861 11.2464 10.7751C13.3447 10.5872 15.4457 11.1052 17.2161 12.2471C17.5131 12.4345 17.7174 12.412 17.9994 12.2218C18.8661 11.64 19.7432 11.0721 20.638 10.5352C21.6837 9.90743 22.2675 9.11285 22.1578 7.79167C22.0417 6.37679 21.3923 5.62719 19.9793 5.62719C17.3257 5.62219 14.6724 5.62219 12.0194 5.62719ZM14.3507 3.74474C14.3507 3.41304 14.3629 3.11976 14.3507 2.82835C14.3235 2.27271 13.9515 1.89135 13.395 1.88385C12.4748 1.86886 11.5537 1.87073 10.6327 1.88385C10.1501 1.88947 9.75938 2.19025 9.69567 2.64001C9.646 2.99982 9.68536 3.37088 9.68536 3.74568L14.3507 3.74474Z" fill="#0D0D0D"/>
</svg>
