<svg width="24" height="24" viewBox="0 0 24 24" fill="none" xmlns="http://www.w3.org/2000/svg">
<g clip-path="url(#clip0_1192_1781)">
<path d="M2.58705 20.8692C2.77587 19.851 2.38596 19.0455 1.83177 18.1866C-2.71408 11.0896 1.62312 1.56966 10.0049 0.167881C13.1423 -0.35709 16.3612 0.376815 18.9539 2.20825C21.5467 4.03968 23.301 6.81872 23.8312 9.93441C24.9273 16.3742 20.4325 22.6011 13.9512 23.6484C11.8482 23.9983 9.68898 23.7757 7.70314 23.0043C7.57052 22.9434 7.42477 22.9161 7.27894 22.925C7.13312 22.9338 6.99178 22.9784 6.86761 23.0549C6.38989 23.3212 5.89329 23.5575 5.39575 23.7872C4.00887 24.4285 2.60877 23.5556 2.58422 22.0413C2.58233 21.6503 2.58705 21.2593 2.58705 20.8692ZM4.29776 20.242C4.29776 20.9564 4.30343 21.4412 4.29776 21.9297C4.2921 22.2982 4.44127 22.3723 4.76132 22.211C5.39103 21.8922 6.03302 21.5978 6.64952 21.2631C7.06115 21.0418 7.4369 21.0474 7.85985 21.233C9.59042 22.0047 11.5037 22.2808 13.3838 22.03C18.9483 21.3165 22.957 16.0554 22.1639 10.5045C21.3463 4.76235 15.9621 0.858928 10.2409 1.85752C2.97791 3.12522 -0.662545 11.3681 3.40181 17.4581C4.04852 18.4164 4.50547 19.3174 4.29871 20.242H4.29776Z" fill="#202834"/>
<path d="M5.92188 14.9112C5.99652 14.7396 6.0823 14.573 6.17867 14.4124C7.41103 12.6621 8.64655 10.9119 9.88521 9.16158C10.2175 8.69276 10.4847 8.6515 10.9436 8.98999C11.712 9.5582 12.4872 10.1152 13.2406 10.7068C13.5974 10.9881 13.8891 10.9769 14.2517 10.7124C15.175 10.0392 16.1229 9.39974 17.0547 8.73495C17.3181 8.54742 17.5806 8.42365 17.8638 8.66463C18.1631 8.91967 18.0838 9.20284 17.9082 9.50195C16.9056 11.2122 15.9133 12.9281 14.9125 14.6393C14.6104 15.155 14.4037 15.2019 13.8788 14.8943C12.827 14.2727 11.7734 13.6538 10.733 13.0134C10.3714 12.7912 10.0929 12.8109 9.75681 13.0772C8.83537 13.8054 7.89788 14.5137 6.94434 15.2019C6.77251 15.3247 6.4789 15.351 6.25986 15.3135C6.13052 15.2938 6.038 15.0594 5.92188 14.9112Z" fill="#202834"/>
</g>
<defs>
<clipPath id="clip0_1192_1781">
<rect width="24" height="24" fill="white"/>
</clipPath>
</defs>
</svg>
