<svg width="24" height="24" viewBox="0 0 24 24" fill="none" xmlns="http://www.w3.org/2000/svg">
<path d="M3 19.5C3 19.575 3 19.65 3.075 19.725V19.875C3.075 19.95 3.15 20.025 3.225 20.025C3.3 20.1 3.375 20.1 3.375 20.175H3.45C3.6 20.25 3.675 20.25 3.75 20.25H9.075C9.375 21.525 10.575 22.5 12 22.5C13.425 22.5 14.55 21.525 14.925 20.25H20.25C20.7 20.25 21 19.95 21 19.5C21 19.275 20.925 19.125 20.775 18.975L19.5 17.025V13.5C19.5 10.2 17.325 7.35 14.325 6.375C14.775 5.85 15 5.175 15 4.5C15 2.85 13.65 1.5 12 1.5C10.35 1.5 9 2.85 9 4.5C9 5.175 9.225 5.85 9.675 6.375C6.675 7.35 4.5 10.2 4.5 13.5V17.025L3.15 19.05C3.15 19.05 3.15 19.125 3.075 19.125V19.2C3 19.35 3 19.425 3 19.5ZM12 21C11.475 21 10.95 20.7 10.725 20.25H13.275C13.05 20.7 12.525 21 12 21ZM10.5 4.5C10.5 3.675 11.175 3 12 3C12.825 3 13.5 3.675 13.5 4.5C13.5 5.325 12.825 6 12 6C11.175 6 10.5 5.325 10.5 4.5ZM5.85 17.7C5.925 17.55 6 17.4 6 17.25V13.5C6 10.2 8.7 7.5 12 7.5C15.3 7.5 18 10.2 18 13.5V17.25C18 17.4 18.075 17.55 18.15 17.7L18.9 18.75H5.175L5.85 17.7Z" fill="#0D0D0D"/>
</svg>
