<svg width="24" height="24" viewBox="0 0 24 24" fill="none" xmlns="http://www.w3.org/2000/svg">
<g clip-path="url(#clip0_1192_4692)">
<path d="M6.51708e-05 11.9647C0.0217097 5.35281 5.40837 -0.0131507 12.0109 2.42092e-05C18.6463 0.0131991 24.0349 5.42245 24.0001 12.0344C23.9653 18.6642 18.5946 24.0141 11.9902 24C5.35097 23.9859 -0.0215793 18.5908 6.51708e-05 11.9647ZM19.8133 19.083C23.3696 15.378 23.794 8.70112 19.3813 4.42586C18.3347 3.40007 17.0861 2.60338 15.7148 2.08646C14.3436 1.56955 12.8797 1.34374 11.4164 1.42341C9.95313 1.50308 8.52245 1.88647 7.2154 2.5492C5.90836 3.21192 4.75359 4.13947 3.82456 5.27282C0.0151238 9.90851 1.17075 16.1261 4.20757 19.05C4.94349 17.1933 6.38896 16.2588 8.27674 15.8946C9.27709 15.7017 10.0968 15.9191 10.683 16.8244C11.0717 17.4239 11.5197 17.9847 11.9638 18.5955C12.4504 17.9292 12.9171 17.3025 13.3698 16.6654C13.8093 16.048 14.3984 15.7657 15.1493 15.84C17.2809 16.0556 18.9371 16.9665 19.8133 19.083ZM11.9488 22.5809C14.2204 22.595 16.4362 21.8781 18.269 20.536C18.5513 20.3365 18.636 20.1379 18.5353 19.7897C18.1146 18.3292 16.5195 17.1707 14.9687 17.2629C14.7763 17.2965 14.604 17.4022 14.4868 17.5584C13.8733 18.3696 13.2851 19.2006 12.6838 20.0212C12.1944 20.6894 11.7286 20.6856 11.2383 20.0137C10.6482 19.2044 10.0704 18.3856 9.46342 17.5876C9.34767 17.4352 9.12935 17.2752 8.95055 17.2667C7.44484 17.1933 5.91278 18.3311 5.47519 19.7841C5.37073 20.1294 5.44319 20.328 5.7274 20.5313C7.60294 21.877 9.68552 22.5762 11.9488 22.5809Z" fill="#0D0D0D"/>
<path d="M16.3414 10.7554C16.341 11.3277 16.2276 11.8942 16.0078 12.4226C15.788 12.951 15.4661 13.4308 15.0606 13.8346C14.655 14.2384 14.1738 14.5582 13.6445 14.7757C13.1152 14.9932 12.5481 15.1042 11.9758 15.1022C10.8284 15.093 9.73094 14.6311 8.92235 13.8168C8.11376 13.0026 7.65944 11.902 7.65823 10.7545C7.65613 10.1822 7.76678 9.61514 7.98386 9.08564C8.20094 8.55614 8.52021 8.07459 8.92342 7.66849C9.32663 7.26239 9.80589 6.9397 10.3338 6.71885C10.8618 6.498 11.428 6.38332 12.0003 6.38135C12.5726 6.38332 13.1389 6.49805 13.6669 6.71897C14.1948 6.93989 14.6741 7.26267 15.0772 7.66888C15.4804 8.07509 15.7995 8.55676 16.0164 9.08636C16.2334 9.61596 16.3438 10.1831 16.3414 10.7554ZM14.9298 10.7677C14.9343 10.38 14.862 9.99523 14.7172 9.63561C14.5723 9.27598 14.3577 8.94857 14.0858 8.67224C13.8138 8.39591 13.4899 8.17612 13.1326 8.02554C12.7753 7.87495 12.3918 7.79654 12.0041 7.79483C11.2291 7.79779 10.4866 8.10645 9.93784 8.65376C9.38913 9.20107 9.07855 9.94279 9.0736 10.7178C9.07037 11.1052 9.14355 11.4894 9.28893 11.8484C9.43431 12.2075 9.64905 12.5344 9.92087 12.8104C10.1927 13.0865 10.5163 13.3062 10.8731 13.457C11.2299 13.6079 11.6129 13.687 12.0003 13.6897C12.7745 13.6855 13.5159 13.3765 14.0639 12.8295C14.6118 12.2826 14.9223 11.5418 14.928 10.7677H14.9298Z" fill="#0D0D0D"/>
</g>
<defs>
<clipPath id="clip0_1192_4692">
<rect width="24.0009" height="24" fill="white"/>
</clipPath>
</defs>
</svg>
