<svg width="24" height="24" viewBox="0 0 24 24" fill="none" xmlns="http://www.w3.org/2000/svg">
<g clip-path="url(#clip0_1192_4704)">
<path d="M11.0441 20.9435H12.9511C12.9511 20.6191 12.9511 20.3103 12.9511 20.0009C12.9561 19.3277 13.193 19.059 13.8262 18.8564C14.3375 18.684 14.8384 18.482 15.3263 18.2514C15.687 18.0883 16.017 18.1089 16.3264 18.3345C16.6195 18.5483 16.7308 18.8552 16.687 19.214C16.6451 19.5521 16.4526 19.7903 16.1564 19.9365C15.8307 20.0984 15.4988 20.2491 15.1632 20.3878C14.7544 20.5585 14.6862 20.8991 15.01 21.2104C15.4682 21.6517 15.4238 22.3605 14.885 22.6824C14.7019 22.7918 14.4525 22.8193 14.2306 22.8305C13.7849 22.8524 13.338 22.8368 12.878 22.8368C12.863 22.9668 12.8536 23.068 12.8392 23.1693C12.7673 23.6693 12.3592 24.0206 11.8691 23.9987C11.6379 23.9937 11.4174 23.9002 11.253 23.7373C11.0887 23.5745 10.9931 23.3549 10.986 23.1237C10.9766 22.8799 10.8872 22.828 10.6672 22.8355C10.2615 22.8499 9.85462 22.848 9.44834 22.8355C8.96517 22.8193 8.63577 22.5611 8.52889 22.1398C8.42201 21.7185 8.58577 21.3123 9.0033 21.0897C9.19832 20.9866 9.19082 20.8397 9.15331 20.701C9.13314 20.6438 9.10149 20.5914 9.06033 20.5469C9.01916 20.5024 8.96935 20.4667 8.91392 20.4422C6.77751 19.6021 5.18363 18.1676 4.1473 16.1181C2.24403 12.3547 3.41599 7.63807 6.85438 5.166C8.64515 3.8784 10.6397 3.30961 12.8255 3.51462C14.5528 3.67319 16.1936 4.34362 17.5377 5.44009C18.8818 6.53656 19.8681 8.00919 20.3704 9.66948C21.0092 11.7978 20.863 13.8811 19.9467 15.9081C19.6604 16.5425 19.1247 16.7963 18.6016 16.5425C18.1196 16.3087 17.9396 15.7625 18.1884 15.2387C18.7622 14.0336 18.9972 12.7678 18.8259 11.4446C18.5053 8.96692 17.2096 7.15741 14.9863 6.03732C11.191 4.12529 6.3606 6.37109 5.34302 10.5008C4.42295 14.2348 6.54124 17.8682 10.2265 18.8764C10.7772 19.0271 11.026 19.3352 11.0391 19.9078C11.051 20.2391 11.0441 20.5716 11.0441 20.9435Z" fill="#0D0D0D"/>
<path d="M11.0601 13.3186C11.0601 13.1417 11.0601 12.9648 11.0601 12.7879C11.0658 12.2197 11.362 11.8653 11.9252 11.7934C12.2646 11.7497 12.5809 11.6815 12.809 11.399C12.9459 11.2336 13.0288 11.0301 13.0464 10.8161C13.0641 10.602 13.0157 10.3877 12.9078 10.2021C12.794 10.0074 12.6217 9.85354 12.4155 9.76242C12.2092 9.6713 11.9795 9.64754 11.7589 9.69452C11.5506 9.74629 11.3625 9.85918 11.2188 10.0187C11.0751 10.1782 10.9824 10.377 10.9526 10.5896C10.9339 10.7227 10.9414 10.8627 10.9032 10.9896C10.772 11.4272 10.3113 11.7316 9.90316 11.6665C9.67314 11.6374 9.4615 11.5258 9.30749 11.3524C9.15347 11.1791 9.06753 10.9558 9.06559 10.724C9.02684 9.4295 9.98066 8.21565 11.3008 7.87938C12.7065 7.52122 14.2454 8.33191 14.7348 9.68827C15.2623 11.1528 14.6354 12.751 13.2497 13.3611C12.9428 13.4961 12.9265 13.6655 12.9296 13.9236C12.9389 14.1228 12.8837 14.3196 12.7722 14.4849C12.6607 14.6502 12.499 14.7751 12.3108 14.8412C11.9502 14.9749 11.5052 14.8662 11.2764 14.5399C11.1663 14.3669 11.0953 14.1719 11.0683 13.9686C11.0332 13.7605 11.0601 13.5367 11.0601 13.3186Z" fill="#0D0D0D"/>
<path d="M11.0614 1.13199C10.9745 0.256918 11.7527 -0.180616 12.3571 0.0694035C12.7946 0.251293 12.9671 0.631948 12.9334 1.35888C12.9287 1.55765 12.8612 1.74983 12.7406 1.90792C12.6201 2.066 12.4525 2.18188 12.2621 2.23895C12.1271 2.27863 11.9848 2.28741 11.8459 2.26462C11.707 2.24184 11.5751 2.18807 11.4598 2.10732C11.3445 2.02657 11.2489 1.9209 11.18 1.79815C11.1112 1.6754 11.0708 1.53872 11.062 1.39826C11.0551 1.307 11.0614 1.21324 11.0614 1.13199Z" fill="#0D0D0D"/>
<path d="M5.38573 4.50411C5.39698 4.85289 5.21197 5.13603 4.88569 5.29605C4.55941 5.45606 4.20939 5.45168 3.91561 5.21291C3.57871 4.93852 3.22806 4.661 3.24681 4.15408C3.24436 3.98712 3.28919 3.82287 3.37613 3.6803C3.46306 3.53773 3.58855 3.42267 3.7381 3.34839C4.05438 3.18276 4.39315 3.17963 4.68067 3.39715C5.03695 3.66654 5.40073 3.94907 5.38573 4.50411Z" fill="#0D0D0D"/>
<path d="M20.7503 4.16533C20.7547 4.73288 20.1253 5.37855 19.5527 5.3873C19.0158 5.39543 18.6195 5.01728 18.6095 4.48786C18.5989 3.90406 19.2389 3.24714 19.8184 3.24651C19.9404 3.24374 20.0617 3.26552 20.1752 3.31055C20.2886 3.35558 20.3919 3.42294 20.4788 3.50864C20.5658 3.59434 20.6346 3.69663 20.6812 3.80944C20.7278 3.92225 20.7513 4.04327 20.7503 4.16533Z" fill="#0D0D0D"/>
<path d="M1.12482 12.936C0.521648 12.936 0.1985 12.7404 0.0491133 12.2841C-0.109649 11.8003 0.126619 11.2622 0.611657 11.1365C0.922446 11.0611 1.24548 11.0506 1.56048 11.1059C2.03615 11.189 2.32054 11.6359 2.26553 12.096C2.24316 12.3204 2.14021 12.5291 1.97575 12.6835C1.8113 12.8378 1.59648 12.9273 1.37109 12.9354C1.29171 12.9398 1.20795 12.936 1.12482 12.936Z" fill="#0D0D0D"/>
<path d="M22.8489 12.9348C21.9276 13.0191 21.5276 12.1847 21.8057 11.6103C21.9932 11.2196 22.3158 11.0702 22.7377 11.059C23.2196 11.0452 23.6621 11.1002 23.9003 11.5922C23.9683 11.7305 24.001 11.8835 23.9953 12.0376C23.9897 12.1917 23.9459 12.3419 23.8679 12.4749C23.7899 12.6079 23.6802 12.7195 23.5485 12.7996C23.4168 12.8797 23.2673 12.926 23.1133 12.9341C23.0227 12.941 22.9289 12.9348 22.8489 12.9348Z" fill="#0D0D0D"/>
<path d="M12.0101 17.9589C11.8875 17.9629 11.7655 17.9424 11.651 17.8985C11.5365 17.8547 11.432 17.7884 11.3436 17.7035C11.2551 17.6187 11.1845 17.517 11.1359 17.4044C11.0873 17.2919 11.0617 17.1708 11.0606 17.0482C11.0578 16.8008 11.1533 16.5623 11.3261 16.3852C11.499 16.2081 11.7351 16.1069 11.9826 16.1038C12.2297 16.1006 12.4682 16.1951 12.646 16.3669C12.8238 16.5386 12.9266 16.7736 12.932 17.0207C12.9346 17.1433 12.9126 17.2651 12.8674 17.379C12.8222 17.493 12.7547 17.5967 12.6687 17.6841C12.5828 17.7715 12.4803 17.8409 12.3672 17.8881C12.254 17.9353 12.1326 17.9594 12.0101 17.9589Z" fill="#0D0D0D"/>
</g>
<defs>
<clipPath id="clip0_1192_4704">
<rect width="23.9975" height="24" fill="white"/>
</clipPath>
</defs>
</svg>
