<svg width="24" height="24" viewBox="0 0 24 24" fill="none" xmlns="http://www.w3.org/2000/svg">
<g clip-path="url(#clip0_1192_4717)">
<path d="M22.3158 10.465C22.2239 7.84709 21.1638 5.39909 19.3023 3.53759C17.3512 1.58609 14.7581 0.511719 12.0011 0.511719C6.43269 0.511719 1.88281 4.94384 1.68669 10.465C0.836937 10.8426 0.242188 11.6931 0.242188 12.6816V15.4048C0.242188 16.7421 1.33006 17.8303 2.66769 17.8303C3.53319 17.8303 4.23706 17.1265 4.23706 16.261V11.8251C4.23706 11.0125 3.61381 10.3498 2.82144 10.2711C3.11394 5.46097 7.11819 1.63672 12.0011 1.63672C14.4581 1.63672 16.7684 2.59447 18.5073 4.33334C20.1041 5.93009 21.0386 8.01134 21.1792 10.2715C20.3876 10.351 19.7654 11.0132 19.7654 11.8251V16.2606C19.7654 17.08 20.3984 17.7467 21.2002 17.8161V18.937C21.2002 20.1992 20.1731 21.226 18.9108 21.226H17.2154C17.1322 20.9882 17.0017 20.7685 16.8187 20.5862C16.4981 20.2641 16.0706 20.0867 15.6153 20.0867H13.8678C13.6169 20.0867 13.3762 20.14 13.1557 20.2427C12.5542 20.5191 12.1657 21.1258 12.1657 21.7885C12.1657 22.2437 12.3431 22.6712 12.6644 22.9911C12.9858 23.3132 13.4133 23.4906 13.8678 23.4906H15.6153C16.3398 23.4906 16.9784 23.0222 17.2166 22.351H18.9108C20.7937 22.351 22.3252 20.8195 22.3252 18.937V17.6158C23.1697 17.236 23.7599 16.3885 23.7599 15.4041V12.6808C23.7599 11.6931 23.1652 10.8426 22.3158 10.465ZM3.11169 11.8251V16.2606C3.11169 16.5055 2.91256 16.705 2.66731 16.705C1.95031 16.705 1.36681 16.1215 1.36681 15.4045V12.6812C1.36681 11.9638 1.95031 11.3807 2.66731 11.3807C2.91256 11.3807 3.11169 11.5802 3.11169 11.8251ZM16.1797 21.9092C16.1238 22.174 15.8861 22.3663 15.6149 22.3663H13.8674C13.7137 22.3663 13.5693 22.3063 13.4591 22.1961C13.3503 22.0877 13.2903 21.943 13.2903 21.7892C13.2903 21.5646 13.4219 21.3595 13.6282 21.2646C13.7017 21.2301 13.7823 21.2125 13.8674 21.2125H15.6149C15.7687 21.2125 15.9131 21.2721 16.0229 21.3823C16.1317 21.4907 16.1917 21.6355 16.1917 21.7892C16.1921 21.8305 16.1876 21.8717 16.1797 21.9092ZM22.6349 15.4045C22.6349 16.1215 22.0514 16.705 21.3344 16.705C21.0896 16.705 20.8901 16.5058 20.8901 16.2606V11.8251C20.8901 11.5802 21.0892 11.3807 21.3344 11.3807C22.0514 11.3807 22.6349 11.9642 22.6349 12.6812V15.4045Z" fill="#0D0D0D"/>
<path d="M15.6448 15.6002C16.9592 15.6002 18.0283 14.5307 18.0283 13.2167V8.36006C18.0283 7.72481 17.7801 7.12631 17.3293 6.67556C16.8786 6.22481 16.2804 5.97656 15.6448 5.97656H8.36006C7.04569 5.97656 5.97656 7.04569 5.97656 8.36006V13.2167C5.97656 14.5311 7.04569 15.6002 8.36006 15.6002H8.40469V16.8587C8.40469 17.3387 8.69081 17.7647 9.13331 17.9443C9.27619 18.0017 9.42469 18.0302 9.57169 18.0302C9.87806 18.0302 10.1766 17.9087 10.3952 17.6826L12.4888 15.6002H15.6448ZM11.8607 14.6387L9.59494 16.8921C9.58481 16.9026 9.57731 16.9104 9.55594 16.9011C9.53006 16.8906 9.53006 16.8737 9.53006 16.8587V15.0377C9.53006 14.7272 9.27844 14.4752 8.96756 14.4752H8.36044C7.66631 14.4752 7.10194 13.9104 7.10194 13.2167V8.36006C7.10194 7.66594 7.66631 7.10156 8.36044 7.10156H15.6452C15.9804 7.10156 16.2958 7.23281 16.5343 7.47094C16.7728 7.70944 16.9037 8.02519 16.9037 8.36006V13.2167C16.9037 13.9108 16.3389 14.4752 15.6452 14.4752H12.2574C12.1086 14.4752 11.9661 14.5341 11.8607 14.6387Z" fill="#0D0D0D"/>
<path d="M9.26737 10.0469C8.80987 10.0469 8.4375 10.4196 8.4375 10.8767C8.4375 11.3339 8.81025 11.7066 9.26737 11.7066C9.72525 11.7066 10.098 11.3339 10.098 10.8767C10.098 10.4196 9.72562 10.0469 9.26737 10.0469Z" fill="#0D0D0D"/>
<path d="M12.0018 10.0469C11.5443 10.0469 11.1719 10.4196 11.1719 10.8767C11.1719 11.3339 11.5446 11.7066 12.0018 11.7066C12.46 11.7066 12.8324 11.3339 12.8324 10.8767C12.8324 10.4196 12.46 10.0469 12.0018 10.0469Z" fill="#0D0D0D"/>
<path d="M14.7322 10.0469C14.2747 10.0469 13.9023 10.4196 13.9023 10.8767C13.9023 11.3339 14.2751 11.7066 14.7322 11.7066C15.1901 11.7066 15.5628 11.3339 15.5628 10.8767C15.5628 10.4196 15.1901 10.0469 14.7322 10.0469Z" fill="#0D0D0D"/>
</g>
<defs>
<clipPath id="clip0_1192_4717">
<rect width="24" height="24" fill="white"/>
</clipPath>
</defs>
</svg>
