<svg width="15" height="14" viewBox="0 0 15 14" fill="none" xmlns="http://www.w3.org/2000/svg">
<path d="M13.6652 1.28927C13.126 0.750085 12.4091 0.453125 11.6466 0.453125C10.884 0.453125 10.1671 0.750085 9.6279 1.28927L1.14716 9.77005C0.284281 10.6329 0.284281 12.0369 1.14716 12.8998C1.57858 13.3312 2.1453 13.5469 2.71202 13.5469C3.2787 13.5469 3.84542 13.3312 4.27684 12.8998L10.9561 6.22047C11.5681 5.60848 11.5681 4.61268 10.9561 4.00065C10.3441 3.38865 9.34831 3.38865 8.73631 4.00065L4.44525 8.29168C4.31428 8.42266 4.31428 8.63503 4.44525 8.76604C4.57622 8.89704 4.78863 8.89701 4.91957 8.76604L9.21063 4.475C9.56106 4.12455 10.1313 4.12455 10.4818 4.475C10.8322 4.82546 10.8322 5.3957 10.4818 5.74616L3.80256 12.4254C3.20123 13.0267 2.22281 13.0268 1.62147 12.4254C1.33018 12.1342 1.16976 11.7469 1.16976 11.3349C1.16976 10.9229 1.33018 10.5357 1.62147 10.2444L10.1022 1.76362C10.5147 1.35112 11.0632 1.12395 11.6466 1.12395C12.2299 1.12395 12.7784 1.35112 13.1909 1.76362C14.0424 2.61516 14.0424 4.00072 13.1909 4.85226L7.0983 10.9448C6.96733 11.0758 6.96733 11.2882 7.0983 11.4192C7.22928 11.5502 7.44165 11.5501 7.57266 11.4192L13.6652 5.32661C14.7783 4.21349 14.7783 2.40235 13.6652 1.28927Z" fill="#0D0D0D"/>
</svg>
