<svg width="30" height="31" viewBox="0 0 30 31" fill="none" xmlns="http://www.w3.org/2000/svg">
<path d="M3 14C3 6.8203 8.8203 1 16 1C23.1797 1 29 6.8203 29 14C29 21.1797 23.1797 27 16 27C8.8203 27 3 21.1797 3 14Z" fill="#EEEEEE" fill-opacity="0.7" stroke="white" stroke-width="2"/>
<g filter="url(#filter0_d_211_1536)">
<circle cx="16.077" cy="14.0736" r="10.0321" fill="#FAC250"/>
<circle cx="16.077" cy="14.0736" r="9.03209" stroke="#F9CF83" stroke-width="2"/>
</g>
<g filter="url(#filter1_d_211_1536)">
<mask id="mask0_211_1536" style="mask-type:alpha" maskUnits="userSpaceOnUse" x="11" y="9" width="10" height="10">
<rect x="11.2998" y="9.25317" width="9.68333" height="9.68333" fill="white"/>
</mask>
<g mask="url(#mask0_211_1536)">
<path d="M16.1529 10.8274C16.005 10.8274 15.879 10.7752 15.7749 10.6708C15.6705 10.5667 15.6183 10.4407 15.6183 10.2928V9.99017C15.6183 9.84223 15.6705 9.71607 15.7749 9.61171C15.879 9.50761 16.005 9.45557 16.1529 9.45557C16.3009 9.45557 16.427 9.50761 16.5314 9.61171C16.6355 9.71607 16.6875 9.84223 16.6875 9.99017V10.2928C16.6875 10.4407 16.6355 10.5667 16.5314 10.6708C16.427 10.7752 16.3009 10.8274 16.1529 10.8274ZM16.1529 18.7354C16.005 18.7354 15.879 18.6834 15.7749 18.5793C15.6705 18.4749 15.6183 18.3488 15.6183 18.2008V17.8982C15.6183 17.7503 15.6705 17.6243 15.7749 17.5202C15.879 17.4158 16.005 17.3636 16.1529 17.3636C16.3009 17.3636 16.427 17.4158 16.5314 17.5202C16.6355 17.6243 16.6875 17.7503 16.6875 17.8982V18.2008C16.6875 18.3488 16.6355 18.4749 16.5314 18.5793C16.427 18.6834 16.3009 18.7354 16.1529 18.7354ZM19.9456 14.62C19.7976 14.62 19.6716 14.5678 19.5675 14.4635C19.4632 14.3594 19.411 14.2333 19.411 14.0854C19.411 13.9375 19.4632 13.8113 19.5675 13.707C19.6716 13.6029 19.7976 13.5508 19.9456 13.5508H20.2482C20.3961 13.5508 20.5223 13.6029 20.6266 13.707C20.7307 13.8113 20.7828 13.9375 20.7828 14.0854C20.7828 14.2333 20.7307 14.3594 20.6266 14.4635C20.5223 14.5678 20.3961 14.62 20.2482 14.62H19.9456ZM12.0375 14.62C11.8896 14.62 11.7636 14.5678 11.6595 14.4635C11.5551 14.3594 11.5029 14.2333 11.5029 14.0854C11.5029 13.9375 11.5551 13.8113 11.6595 13.707C11.7636 13.6029 11.8896 13.5508 12.0375 13.5508H12.3401C12.4881 13.5508 12.6142 13.6029 12.7186 13.707C12.8227 13.8113 12.8747 13.9375 12.8747 14.0854C12.8747 14.2333 12.8227 14.3594 12.7186 14.4635C12.6142 14.5678 12.4881 14.62 12.3401 14.62H12.0375ZM18.604 11.6141C18.4964 11.5065 18.4427 11.3788 18.4427 11.2308C18.4427 11.0829 18.4964 10.9551 18.604 10.8475L18.6746 10.7769C18.7755 10.6761 18.8999 10.6256 19.0479 10.6256C19.1958 10.6256 19.3236 10.6794 19.4312 10.787C19.5388 10.8946 19.5925 11.0224 19.5925 11.1703C19.5925 11.3183 19.5388 11.446 19.4312 11.5536L19.3605 11.6242C19.2597 11.7251 19.1353 11.7755 18.9873 11.7755C18.8394 11.7755 18.7116 11.7217 18.604 11.6141ZM12.8546 17.404C12.747 17.2964 12.6932 17.1686 12.6932 17.0207C12.6932 16.8727 12.747 16.745 12.8546 16.6374L12.9252 16.5668C13.026 16.4659 13.1504 16.4155 13.2984 16.4155C13.4463 16.4155 13.5741 16.4693 13.6817 16.5768C13.7893 16.6844 13.8431 16.8122 13.8431 16.9601C13.8431 17.1081 13.7893 17.2359 13.6817 17.3434L13.6111 17.4141C13.5102 17.5149 13.3858 17.5654 13.2379 17.5654C13.0899 17.5654 12.9622 17.5116 12.8546 17.404ZM18.6646 17.404L18.594 17.3334C18.4931 17.2325 18.4427 17.1081 18.4427 16.9601C18.4427 16.8122 18.4964 16.6844 18.604 16.5768C18.7116 16.4693 18.8394 16.4155 18.9873 16.4155C19.1353 16.4155 19.263 16.4693 19.3706 16.5768L19.4412 16.6475C19.5421 16.7483 19.5925 16.8727 19.5925 17.0207C19.5925 17.1686 19.5388 17.2964 19.4312 17.404C19.3236 17.5116 19.1958 17.5654 19.0479 17.5654C18.8999 17.5654 18.7722 17.5116 18.6646 17.404ZM12.8949 11.6141L12.8445 11.5637C12.7436 11.4628 12.6932 11.3384 12.6932 11.1905C12.6932 11.0426 12.747 10.9148 12.8546 10.8072C12.9622 10.6996 13.0899 10.6458 13.2379 10.6458C13.3858 10.6458 13.5136 10.6996 13.6212 10.8072L13.6716 10.8576C13.7725 10.9585 13.8229 11.0829 13.8229 11.2308C13.8229 11.3788 13.7691 11.5065 13.6615 11.6141C13.5539 11.7217 13.4261 11.7755 13.2782 11.7755C13.1303 11.7755 13.0025 11.7217 12.8949 11.6141ZM16.1429 16.8189C15.3897 16.8189 14.7475 16.5533 14.2163 16.0221C13.685 15.4908 13.4194 14.8486 13.4194 14.0955C13.4194 13.3423 13.685 12.7002 14.2163 12.1689C14.7475 11.6377 15.3897 11.3721 16.1429 11.3721C16.896 11.3721 17.5382 11.6377 18.0694 12.1689C18.6007 12.7002 18.8663 13.3423 18.8663 14.0955C18.8663 14.8486 18.6007 15.4908 18.0694 16.0221C17.5382 16.5533 16.896 16.8189 16.1429 16.8189Z" fill="white"/>
</g>
</g>
<defs>
<filter id="filter0_d_211_1536" x="0.0449219" y="2.0415" width="28.0645" height="28.0642" filterUnits="userSpaceOnUse" color-interpolation-filters="sRGB">
<feFlood flood-opacity="0" result="BackgroundImageFix"/>
<feColorMatrix in="SourceAlpha" type="matrix" values="0 0 0 0 0 0 0 0 0 0 0 0 0 0 0 0 0 0 127 0" result="hardAlpha"/>
<feOffset dx="-2" dy="2"/>
<feGaussianBlur stdDeviation="2"/>
<feComposite in2="hardAlpha" operator="out"/>
<feColorMatrix type="matrix" values="0 0 0 0 0 0 0 0 0 0 0 0 0 0 0 0 0 0 0.25 0"/>
<feBlend mode="normal" in2="BackgroundImageFix" result="effect1_dropShadow_211_1536"/>
<feBlend mode="normal" in="SourceGraphic" in2="effect1_dropShadow_211_1536" result="shape"/>
</filter>
<filter id="filter1_d_211_1536" x="9.29765" y="9.45557" width="13.6908" height="13.6905" filterUnits="userSpaceOnUse" color-interpolation-filters="sRGB">
<feFlood flood-opacity="0" result="BackgroundImageFix"/>
<feColorMatrix in="SourceAlpha" type="matrix" values="0 0 0 0 0 0 0 0 0 0 0 0 0 0 0 0 0 0 127 0" result="hardAlpha"/>
<feOffset dy="2.20528"/>
<feGaussianBlur stdDeviation="1.10264"/>
<feComposite in2="hardAlpha" operator="out"/>
<feColorMatrix type="matrix" values="0 0 0 0 0 0 0 0 0 0 0 0 0 0 0 0 0 0 0.15 0"/>
<feBlend mode="normal" in2="BackgroundImageFix" result="effect1_dropShadow_211_1536"/>
<feBlend mode="normal" in="SourceGraphic" in2="effect1_dropShadow_211_1536" result="shape"/>
</filter>
</defs>
</svg>
