<svg width="34" height="28" viewBox="0 0 34 28" fill="none" xmlns="http://www.w3.org/2000/svg">
<path d="M33.417 12.5062C33.33 16.9835 31.7883 20.8465 28.4742 23.9213C26.554 25.704 24.2415 26.7924 21.7218 27.4345C17.5455 28.5038 13.5033 28.0557 9.64898 26.1416C6.30276 24.4816 3.83182 21.8862 1.96904 18.6853C0.931075 16.9017 0.248087 14.9945 0.0340543 12.929C-0.0529507 12.0999 -0.00770658 12.0938 0.584797 11.6971C1.87595 10.827 3.39071 10.479 4.76713 9.81426C5.04728 9.67854 5.37616 9.62198 5.68677 9.57326C6.32887 9.47059 6.73692 9.66548 7.0136 10.2797C7.43644 11.2159 7.78272 12.1852 8.20557 13.1205C9.1748 15.2669 10.3807 17.2436 12.3026 18.6949C14.3907 20.2714 16.7529 20.9692 19.35 20.7656C21.3511 20.609 23.0808 19.8329 24.2745 18.1328C25.0889 16.973 25.3751 15.6305 25.5039 14.2463C25.7475 11.6214 25.0776 9.16956 24.0683 6.78649C23.7751 6.09045 23.4419 5.4179 23.1234 4.73665C22.7563 3.95361 22.9555 3.47682 23.769 3.19928C25.6727 2.55022 27.5407 1.80719 29.4078 1.05808C29.8237 0.891902 30.0943 0.964987 30.3153 1.3713C31.8579 4.22158 32.942 7.22935 33.303 10.4659C33.3778 11.1385 33.4631 11.8189 33.417 12.5062Z" fill="#00B8D9"/>
<path d="M11.3977 13.4798C10.6599 13.5433 10.2014 13.2866 9.91164 12.5418C9.00243 10.1927 8.04277 7.86794 7.4755 5.40743C7.19708 4.21199 7.41633 3.88572 8.59351 3.54901C9.37655 3.32367 10.1352 3.06787 10.82 2.61197C11.1567 2.38749 11.4238 2.50495 11.6665 2.83122C12.5244 3.98664 13.0656 5.28998 13.5119 6.64204C13.9713 8.02802 14.5725 9.36442 14.984 10.7678C15.2633 11.7196 15.138 12.1207 14.2775 12.6375C13.4056 13.1605 12.414 13.4505 11.3977 13.4798Z" fill="#00B8D9"/>
<path d="M17.5647 -0.00161325C17.7709 -0.0103137 18.0423 0.148035 18.2172 0.472564C18.7549 1.46703 19.203 2.50326 19.6685 3.53166C20.428 5.21259 21.0066 6.94834 21.3155 8.77371C21.3903 9.2183 21.185 9.47497 20.8743 9.67769C20.1522 10.1475 19.3413 10.4312 18.5252 10.6704C18.0458 10.8105 17.4463 10.5242 17.1732 10.1058C15.6158 7.72617 14.65 5.10297 13.9827 2.35709C13.9383 2.17351 13.9296 2.00907 14.0949 1.88726C14.6987 1.43745 15.2895 0.970232 15.9133 0.551739C16.3544 0.253311 16.8417 0.0166578 17.5647 -0.00161325Z" fill="#00B8D9"/>
</svg>
