<svg width="16" height="16" viewBox="0 0 16 16" fill="none" xmlns="http://www.w3.org/2000/svg">
<g clip-path="url(#clip0_1192_5270)">
<path d="M7.99437 0.00292969C9.56289 0.0502363 11.0057 0.471559 12.3244 1.31273C12.6644 1.52931 12.8574 1.83015 12.7953 2.24113C12.7391 2.61589 12.5099 2.91377 12.1426 2.94999C11.8436 2.96701 11.5461 2.89719 11.2859 2.74894C8.97008 1.43396 6.68309 1.45835 4.46707 2.93225C2.3538 4.33666 1.37957 6.94 1.94577 9.44134C2.48537 11.8252 4.5129 13.7462 6.93884 14.1506C8.49109 14.41 9.9406 14.1092 11.2955 13.2998C11.5431 13.1507 11.8296 13.0792 12.1182 13.0943C12.4878 13.1276 12.7258 13.4144 12.7916 13.7869C12.861 14.1757 12.7036 14.4869 12.3762 14.7042C11.5282 15.2761 10.5724 15.669 9.56732 15.8588C5.20624 16.66 1.21474 14.0486 0.202082 9.74219C-0.813533 5.4225 2.14905 0.946104 6.536 0.185502C7.01646 0.09828 7.50726 0.0598455 7.99437 0.00292969Z" fill="#0D0D0D"/>
<path d="M12.8549 8.91059C10.9109 8.91059 8.96693 8.91059 7.02292 8.91059C6.87596 8.91793 6.72866 8.90651 6.58459 8.87659C6.38064 8.8218 6.20293 8.69603 6.08343 8.52192C5.96392 8.3478 5.91046 8.13677 5.93265 7.92676C5.98217 7.47808 6.3621 7.14177 6.85069 7.14103C8.72325 7.1366 10.5941 7.1366 12.4632 7.14103H12.8594L12.9185 7.05824C12.6642 6.81727 12.4011 6.58443 12.1572 6.33459C11.7484 5.91696 11.7373 5.39733 12.1165 5.02849C12.4957 4.65964 12.9932 4.68107 13.3975 5.07949C14.1692 5.83935 14.9347 6.60563 15.6941 7.3783C16.0969 7.78928 16.094 8.27047 15.6867 8.68514C14.9283 9.45831 14.1625 10.2246 13.3894 10.984C12.988 11.3787 12.4743 11.3824 12.1091 11.0187C11.744 10.655 11.7491 10.142 12.1394 9.73919C12.3856 9.48492 12.6509 9.24913 12.9074 9.00521L12.8549 8.91059Z" fill="#0D0D0D"/>
</g>
<defs>
<clipPath id="clip0_1192_5270">
<rect width="15.9933" height="16" fill="white"/>
</clipPath>
</defs>
</svg>
