<svg width="25" height="24" viewBox="0 0 25 24" fill="none" xmlns="http://www.w3.org/2000/svg">
<path fill-rule="evenodd" clip-rule="evenodd" d="M12.3008 2.75C7.46829 2.75 3.55078 6.66751 3.55078 11.5C3.55078 16.3325 7.46829 20.25 12.3008 20.25C17.1333 20.25 21.0508 16.3325 21.0508 11.5C21.0508 6.66751 17.1333 2.75 12.3008 2.75ZM2.05078 11.5C2.05078 5.83908 6.63986 1.25 12.3008 1.25C17.9617 1.25 22.5508 5.83908 22.5508 11.5C22.5508 14.0605 21.6119 16.4017 20.0596 18.1982L23.3311 21.4697C23.624 21.7626 23.624 22.2374 23.3311 22.5303C23.0382 22.8232 22.5633 22.8232 22.2705 22.5303L18.999 19.2589C17.2025 20.8111 14.8613 21.75 12.3008 21.75C6.63986 21.75 2.05078 17.1609 2.05078 11.5Z" fill="#A1A1A1"/>
</svg>
