<svg width="50" height="50" viewBox="0 0 50 50" fill="none" xmlns="http://www.w3.org/2000/svg">
<circle cx="25" cy="25" r="25" fill="#D3D3D2"/>
<path d="M30.0002 38.3335C29.8571 38.3335 29.714 38.279 29.6051 38.1697C29.3869 37.9515 29.3869 37.5978 29.6051 37.3796L36.1331 30.8515C38.9658 28.0186 38.9658 23.4098 36.1331 20.5771L29.6051 14.049C29.3869 13.8308 29.3869 13.4771 29.6051 13.2589C29.823 13.0407 30.1773 13.0407 30.3952 13.2589L36.9233 19.787C40.1915 23.0552 40.1915 28.3737 36.9233 31.6419L30.3952 38.17C30.2863 38.2787 30.1429 38.3335 30.0002 38.3335Z" fill="#FC8721"/>
<path d="M29.4591 32.7025C29.3161 32.7025 29.1733 32.6481 29.0641 32.5388C28.8458 32.3206 28.8458 31.9669 29.0641 31.7486L31.8721 28.9403C32.6377 28.1747 33.0593 27.1566 33.0593 26.0736C33.059 24.9906 32.6374 23.9727 31.8713 23.2074L30.5304 21.8671C30.3122 21.6489 30.3122 21.2949 30.5304 21.0767C30.7486 20.8585 31.1023 20.8587 31.3208 21.0764L32.6617 22.4167C33.6385 23.3932 34.1769 24.6919 34.1769 26.0733C34.1769 27.4547 33.6394 28.7537 32.6625 29.7305L29.8545 32.5388C29.7453 32.6481 29.6022 32.7025 29.4591 32.7025Z" fill="#111111"/>
<path d="M28.4034 14.7502C27.7753 14.7502 27.1846 14.5082 26.7368 14.0665C26.2805 13.6166 26.0293 13.0156 26.0293 12.375C26.0293 11.0657 27.0947 10 28.4043 10C29.0449 10 29.6454 10.2515 30.0952 10.7072C30.5451 11.1635 30.7879 11.7675 30.7792 12.4085C30.7613 13.682 29.711 14.732 28.4381 14.7499C28.426 14.7499 28.4146 14.7502 28.4034 14.7502ZM28.404 11.1176C27.7108 11.1176 27.1466 11.6818 27.1466 12.375C27.1466 12.7142 27.2796 13.0324 27.5213 13.2705C27.7627 13.5085 28.0771 13.6482 28.4221 13.6323C29.0846 13.6234 29.6521 13.0559 29.6613 12.3928C29.6661 12.0534 29.5375 11.7337 29.2995 11.492C29.0611 11.2506 28.7432 11.1176 28.404 11.1176Z" fill="#FC8721"/>
<path d="M28.0527 35.6284C27.424 35.6284 26.8328 35.3861 26.3849 34.9441C25.9289 34.4943 25.6777 33.8938 25.6777 33.2531C25.6777 31.9438 26.7431 30.8782 28.0527 30.8782C28.6934 30.8782 29.2938 31.1294 29.7437 31.5854C30.1935 32.0416 30.4363 32.6457 30.4277 33.2867C30.4098 34.5599 29.3598 35.6099 28.0868 35.6281C28.0753 35.6281 28.0639 35.6284 28.0527 35.6284ZM28.0524 31.9958C27.3592 31.9958 26.7951 32.5596 26.7951 33.2531C26.7951 33.5923 26.9281 33.9103 27.1695 34.1484C27.4109 34.3867 27.7319 34.5091 28.0706 34.5105C28.7328 34.5013 29.3003 33.9338 29.3095 33.2713C29.3142 32.9315 29.1857 32.6119 28.9476 32.3702C28.7096 32.1288 28.3916 31.9958 28.0524 31.9958Z" fill="#111111"/>
<path d="M20.6927 35.2385C20.5496 35.2385 20.4066 35.1841 20.2976 35.0748L13.7695 28.5467C10.5013 25.2785 10.5013 19.9603 13.7695 16.6917L20.2976 10.1637C20.5155 9.94545 20.8698 9.94545 21.0878 10.1637C21.306 10.3819 21.306 10.7356 21.0878 10.9538L14.5597 17.4819C11.7271 20.3148 11.7271 24.9236 14.5597 27.7563L21.0878 34.2844C21.306 34.5026 21.306 34.8563 21.0878 35.0745C20.9788 35.1841 20.8355 35.2385 20.6927 35.2385Z" fill="#FC8721"/>
<path d="M19.7671 27.4204C19.624 27.4204 19.4813 27.3659 19.372 27.2567L18.0311 25.9163C17.054 24.9401 16.5159 23.6411 16.5156 22.26C16.5156 20.8786 17.0532 19.5797 18.0303 18.6028L20.8383 15.7945C21.0563 15.5763 21.4103 15.5763 21.6285 15.7945C21.8467 16.0127 21.8467 16.3665 21.6285 16.5847L18.8205 19.393C18.0549 20.1586 17.633 21.1768 17.6333 22.2597C17.6335 23.3427 18.0552 24.3606 18.8213 25.1259L20.1622 26.4665C20.3804 26.6844 20.3804 27.0384 20.1622 27.2567C20.0532 27.3659 19.9102 27.4204 19.7671 27.4204Z" fill="#111111"/>
<path d="M22.289 38.333C21.6483 38.333 21.0479 38.0818 20.598 37.6255C20.1482 37.1695 19.9054 36.5651 19.9143 35.9242C19.9322 34.6509 20.9822 33.6009 22.2555 33.583C22.8967 33.5805 23.5005 33.8169 23.9565 34.2665C24.4128 34.7163 24.6639 35.3173 24.6639 35.958C24.6639 37.2673 23.5986 38.333 22.289 38.333ZM22.2893 34.7004C22.2834 34.7004 22.2773 34.7004 22.2711 34.7007C21.6086 34.7096 21.0412 35.2774 21.0319 35.9398C21.0272 36.2796 21.1557 36.5992 21.3938 36.8409C21.6318 37.0826 21.9498 37.2156 22.289 37.2156C22.9822 37.2156 23.5463 36.6518 23.5463 35.9583C23.5463 35.6188 23.4133 35.3008 23.1716 35.0628C22.9347 34.8286 22.6218 34.7004 22.2893 34.7004Z" fill="#FC8721"/>
<path d="M22.6386 17.4548C21.9979 17.4548 21.3975 17.2036 20.9476 16.7476C20.4978 16.2913 20.255 15.6872 20.2639 15.0463C20.2818 13.7727 21.3321 12.723 22.6051 12.7051C23.2497 12.702 23.8501 12.939 24.3061 13.3885C24.7624 13.8384 25.0136 14.4391 25.0136 15.0798C25.0136 16.3894 23.9482 17.4548 22.6386 17.4548ZM22.6386 13.8225C22.6327 13.8225 22.6266 13.8225 22.6204 13.8227C21.958 13.8317 21.3905 14.3992 21.3813 15.0616C21.3765 15.4011 21.505 15.721 21.7431 15.9627C21.9814 16.2041 22.2991 16.3371 22.6383 16.3371C23.3315 16.3371 23.8956 15.773 23.8956 15.0798C23.8956 14.7406 23.7626 14.4226 23.5212 14.1846C23.2843 13.9507 22.9714 13.8225 22.6386 13.8225Z" fill="#111111"/>
<path d="M25.3473 27.3348C27.0968 27.3348 28.515 25.9166 28.515 24.1672C28.515 22.4177 27.0968 20.9995 25.3473 20.9995C23.5979 20.9995 22.1797 22.4177 22.1797 24.1672C22.1797 25.9166 23.5979 27.3348 25.3473 27.3348Z" fill="#FC8721"/>
</svg>
