<svg width="14" height="14" viewBox="0 0 14 14" fill="none" xmlns="http://www.w3.org/2000/svg">
<path d="M7.03311 1.02421L8.20224 4.80552C8.34057 5.25294 8.73731 5.55587 9.18497 5.55587H12.9684C12.979 5.55587 12.9853 5.55798 12.9853 5.55798C12.9866 5.55847 12.9882 5.55958 12.9882 5.55958C12.9904 5.56136 12.9962 5.56769 13.0001 5.58007C13.0039 5.59245 13.0027 5.6012 13.0019 5.604L13.0014 5.60539L13.0005 5.60707C13.0005 5.60707 12.9966 5.61264 12.988 5.61924L9.92711 7.95621C9.56497 8.23273 9.41344 8.72286 9.55177 9.17032L10.7209 12.9516C10.7242 12.9622 10.7242 12.9692 10.7242 12.9692C10.7242 12.9707 10.7236 12.9725 10.7236 12.9725C10.7227 12.9753 10.7188 12.9831 10.7088 12.9908C10.6988 12.9984 10.6904 12.9999 10.6877 13C10.6877 13 10.6858 12.9999 10.6844 12.9995C10.6844 12.9995 10.6782 12.9973 10.6696 12.9908L7.60877 10.6538C7.24657 10.3773 6.75617 10.3773 6.39399 10.6538L3.33315 12.9908C3.32451 12.9973 3.31828 12.9995 3.31828 12.9995C3.3169 12.9999 3.31505 13 3.31505 13C3.31227 12.9999 3.30398 12.9984 3.29396 12.9908C3.28394 12.9831 3.28003 12.9753 3.27909 12.9725C3.27909 12.9725 3.27857 12.9707 3.27854 12.9692C3.27854 12.9692 3.27855 12.9622 3.28185 12.9516L4.45099 9.17032C4.58933 8.72286 4.43778 8.23273 4.07561 7.95621L1.01476 5.61924C1.00613 5.61264 1.00227 5.60707 1.00227 5.60707C1.00143 5.60583 1.00082 5.604 1.00082 5.604C1.00004 5.6012 0.998824 5.59244 1.00265 5.58007C1.00648 5.56769 1.01236 5.56136 1.01455 5.55958C1.01455 5.55958 1.01607 5.55847 1.01744 5.55798C1.01744 5.55798 1.02369 5.55587 1.03435 5.55587H4.81777C5.26544 5.55587 5.66219 5.25294 5.80053 4.80552L6.96967 1.02421C6.97297 1.01355 6.97681 1.00796 6.97681 1.00796C6.97768 1.00675 6.97915 1.00556 6.97915 1.00556C6.98145 1.00392 6.98899 1 7.00137 1C7.01377 1 7.02131 1.00392 7.02357 1.00556C7.02357 1.00556 7.02504 1.00675 7.02591 1.00796C7.02591 1.00796 7.02977 1.01355 7.03311 1.02421Z" stroke="#202834"/>
</svg>
