<svg width="16" height="16" viewBox="0 0 16 16" fill="none" xmlns="http://www.w3.org/2000/svg">
<g clip-path="url(#clip0_1205_23774)">
<path d="M7.99956 0C12.403 0 15.9991 3.58924 16.0003 7.99002C16.0006 12.3958 12.3924 16.0079 7.9975 15.9991C3.58645 15.9909 -0.00176072 12.3964 6.48186e-07 7.9865C0.00146846 3.58543 3.59144 0.000880508 7.99956 0ZM8.00572 1.45254C4.3908 1.44462 1.46458 4.3635 1.45519 7.9865C1.44579 11.6095 4.37554 14.5472 7.99927 14.5428C8.85876 14.5438 9.71 14.3752 10.5042 14.0467C11.2984 13.7182 12.02 13.2362 12.6275 12.6284C13.235 12.0205 13.7166 11.2988 14.0446 10.5045C14.3726 9.71022 14.5406 8.85902 14.5389 7.99971C14.5357 4.37642 11.6353 1.46047 8.00572 1.45254Z" fill="#0D0D0D" fill-opacity="0.5"/>
<path d="M7.26786 5.80748C7.26786 5.11275 7.26962 4.41803 7.26786 3.72361C7.26786 3.42629 7.34859 3.17094 7.61514 3.00893C8.1001 2.71543 8.71335 3.03828 8.71923 3.60474C8.73097 4.7447 8.72363 5.88467 8.72539 7.02463C8.72539 7.24476 8.67137 7.48895 8.74976 7.67738C8.82814 7.86581 9.03921 8.00023 9.1945 8.15608C9.91706 8.88006 10.6401 9.60315 11.3636 10.3254C11.5926 10.5534 11.6992 10.8146 11.6026 11.1357C11.4576 11.6171 10.8423 11.7982 10.4577 11.4733C10.4019 11.426 10.3491 11.3749 10.2971 11.323C9.38062 10.4049 8.46823 9.48418 7.54645 8.57168C7.45421 8.4847 7.38152 8.37912 7.33319 8.26194C7.28486 8.14475 7.26199 8.01863 7.26609 7.89193C7.2702 7.19721 7.26786 6.50249 7.26786 5.80748Z" fill="#0D0D0D" fill-opacity="0.5"/>
</g>
<defs>
<clipPath id="clip0_1205_23774">
<rect width="16" height="16" fill="white"/>
</clipPath>
</defs>
</svg>
