<svg width="35" height="35" viewBox="0 0 35 35" fill="none" xmlns="http://www.w3.org/2000/svg">
<rect width="35" height="35" rx="5" fill="#D2D3D2"/>
<path d="M24.2718 15.1439L23.9496 24.8939C23.9222 25.7289 23.5704 26.5204 22.969 27.1003C22.3676 27.6802 21.5639 28.0029 20.7284 28H14.608C13.7731 28.003 12.9698 27.6807 12.3685 27.1015C11.7671 26.5222 11.415 25.7316 11.3868 24.8971L11.0646 15.1439C11.0576 14.9304 11.1357 14.7227 11.2817 14.5667C11.4277 14.4107 11.6298 14.3191 11.8434 14.3121C12.0569 14.305 12.2646 14.3831 12.4206 14.5291C12.5766 14.6752 12.6682 14.8772 12.6753 15.0908L12.9974 24.8431C13.0134 25.2595 13.1902 25.6534 13.4905 25.9422C13.7908 26.2309 14.1914 26.3921 14.608 26.3918H20.7284C21.1456 26.392 21.5466 26.2304 21.847 25.941C22.1474 25.6515 22.3238 25.2568 22.339 24.8399L22.6611 15.0908C22.6682 14.8772 22.7598 14.6752 22.9158 14.5291C23.0718 14.3831 23.2795 14.305 23.493 14.3121C23.7066 14.3191 23.9087 14.4107 24.0547 14.5667C24.2007 14.7227 24.2788 14.9304 24.2718 15.1439ZM25.3372 11.8993C25.3372 12.1129 25.2524 12.3178 25.1013 12.4688C24.9503 12.6198 24.7455 12.7047 24.5319 12.7047H10.8053C10.5917 12.7047 10.3869 12.6198 10.2359 12.4688C10.0848 12.3178 10 12.1129 10 11.8993C10 11.6858 10.0848 11.4809 10.2359 11.3299C10.3869 11.1789 10.5917 11.094 10.8053 11.094H13.3018C13.5569 11.0947 13.8032 11.0004 13.9927 10.8296C14.1822 10.6587 14.3014 10.4234 14.327 10.1695C14.3864 9.57398 14.6654 9.0219 15.1096 8.62083C15.5539 8.21977 16.1315 7.99845 16.73 8.00001H18.6064C19.2049 7.99845 19.7825 8.21977 20.2268 8.62083C20.671 9.0219 20.95 9.57398 21.0094 10.1695C21.035 10.4234 21.1542 10.6587 21.3437 10.8296C21.5332 11.0004 21.7794 11.0947 22.0346 11.094H24.5311C24.7447 11.094 24.9495 11.1789 25.1005 11.3299C25.2516 11.4809 25.3364 11.6858 25.3364 11.8993H25.3372ZM15.725 11.094H19.613C19.5072 10.8522 19.438 10.596 19.4077 10.3338C19.3877 10.1353 19.2948 9.95127 19.1469 9.81737C18.999 9.68347 18.8067 9.60922 18.6072 9.60903H16.7308C16.5313 9.60922 16.339 9.68347 16.1911 9.81737C16.0432 9.95127 15.9503 10.1353 15.9303 10.3338C15.8998 10.596 15.8311 10.8523 15.725 11.094ZM16.5359 23.2953V16.4381C16.5359 16.2245 16.4511 16.0197 16.3001 15.8686C16.149 15.7176 15.9442 15.6328 15.7306 15.6328C15.517 15.6328 15.3122 15.7176 15.1612 15.8686C15.0101 16.0197 14.9253 16.2245 14.9253 16.4381V23.2986C14.9253 23.5121 15.0101 23.717 15.1612 23.868C15.3122 24.019 15.517 24.1039 15.7306 24.1039C15.9442 24.1039 16.149 24.019 16.3001 23.868C16.4511 23.717 16.5359 23.5121 16.5359 23.2986V23.2953ZM20.4127 23.2953V16.4381C20.4127 16.2245 20.3279 16.0197 20.1768 15.8686C20.0258 15.7176 19.821 15.6328 19.6074 15.6328C19.3938 15.6328 19.189 15.7176 19.038 15.8686C18.8869 16.0197 18.8021 16.2245 18.8021 16.4381V23.2986C18.8021 23.5121 18.8869 23.717 19.038 23.868C19.189 24.019 19.3938 24.1039 19.6074 24.1039C19.821 24.1039 20.0258 24.019 20.1768 23.868C20.3279 23.717 20.4127 23.5121 20.4127 23.2986V23.2953Z" fill="#F27678"/>
</svg>
