<svg width="139" height="42" viewBox="0 0 139 42" fill="none" xmlns="http://www.w3.org/2000/svg">
<path d="M39.4635 19.2359C39.3608 24.5233 37.5401 29.0853 33.6264 32.7164C31.3588 34.8217 28.6277 36.1071 25.6522 36.8653C20.7203 38.1281 15.9466 37.599 11.3949 35.3385C7.4432 33.3781 4.52516 30.3131 2.32533 26.533C1.09955 24.4267 0.292976 22.1745 0.0402162 19.7352C-0.0625317 18.756 -0.00910102 18.7488 0.690612 18.2803C2.21539 17.2528 4.00423 16.8419 5.6297 16.0569C5.96055 15.8966 6.34893 15.8298 6.71574 15.7722C7.47402 15.651 7.95591 15.8812 8.28265 16.6066C8.782 17.7121 9.19094 18.8567 9.6903 19.9613C10.8349 22.4961 12.259 24.8305 14.5287 26.5443C16.9946 28.4061 19.7842 29.2302 22.8513 28.9897C25.2145 28.8048 27.2571 27.8883 28.6668 25.8806C29.6285 24.5109 29.9665 22.9255 30.1186 21.2908C30.4063 18.1909 29.6152 15.2955 28.4233 12.4812C28.077 11.6592 27.6835 10.865 27.3074 10.0605C26.8738 9.13576 27.1091 8.57271 28.0698 8.24494C30.3179 7.47844 32.5239 6.60097 34.7289 5.71632C35.22 5.52007 35.5396 5.60638 35.8006 6.08621C37.6223 9.45223 38.9025 13.0042 39.3289 16.8264C39.4173 17.6207 39.518 18.4242 39.4635 19.2359Z" fill="#00B8D9"/>
<path d="M13.459 20.3857C12.5877 20.4607 12.0462 20.1576 11.7041 19.2781C10.6303 16.5039 9.49704 13.7585 8.82713 10.8528C8.49833 9.44102 8.75725 9.05572 10.1474 8.65808C11.0722 8.39197 11.9681 8.08989 12.7768 7.55149C13.1744 7.2864 13.4898 7.42511 13.7765 7.81041C14.7896 9.1749 15.4287 10.7141 15.9558 12.3108C16.4983 13.9475 17.2083 15.5257 17.6943 17.1831C18.0241 18.3071 17.8761 18.7808 16.8599 19.3911C15.8303 20.0087 14.6592 20.3512 13.459 20.3857Z" fill="#00B8D9"/>
<path d="M20.7432 4.46497C20.9867 4.4547 21.3073 4.6417 21.5138 5.02495C22.1488 6.19935 22.6779 7.42308 23.2276 8.63756C24.1246 10.6226 24.8079 12.6725 25.1727 14.8281C25.261 15.3532 25.0185 15.6563 24.6517 15.8957C23.7989 16.4505 22.8413 16.7855 21.8775 17.068C21.3114 17.2334 20.6035 16.8954 20.2808 16.4012C18.4416 13.591 17.3011 10.4932 16.5131 7.25046C16.4607 7.03366 16.4504 6.83947 16.6456 6.69562C17.3587 6.16442 18.0563 5.61266 18.793 5.11845C19.314 4.76602 19.8894 4.48655 20.7432 4.46497Z" fill="#00B8D9"/>
<path d="M122.688 31.0662L128.205 23.7586L122.805 16.5978H126.356L130.142 21.7923H130.611L134.397 16.5978H137.978L132.548 23.7586L138.066 31.0662H134.456L130.611 25.7543H130.142L126.297 31.0662H122.688Z" fill="#1D2127"/>
<path d="M114.36 31.4771C112.893 31.4771 111.611 31.1739 110.516 30.5674C109.42 29.9413 108.559 29.0706 107.933 27.9554C107.327 26.8207 107.023 25.5098 107.023 24.0228V23.6707C107.023 22.1642 107.327 20.8533 107.933 19.7381C108.54 18.6033 109.381 17.7327 110.457 17.1261C111.553 16.5001 112.815 16.187 114.243 16.187C115.632 16.187 116.845 16.5001 117.882 17.1261C118.939 17.7327 119.76 18.5837 120.347 19.6794C120.934 20.775 121.228 22.0565 121.228 23.5239V24.6685H110.105C110.144 25.9402 110.565 26.9576 111.367 27.7206C112.189 28.4641 113.206 28.8359 114.419 28.8359C115.554 28.8359 116.405 28.5815 116.972 28.0728C117.559 27.5641 118.009 26.9772 118.322 26.312L120.817 27.6033C120.543 28.1511 120.142 28.7282 119.614 29.3348C119.105 29.9413 118.43 30.45 117.589 30.8608C116.747 31.2717 115.671 31.4771 114.36 31.4771ZM110.134 22.35H118.146C118.068 21.2544 117.677 20.4033 116.972 19.7968C116.268 19.1707 115.348 18.8576 114.214 18.8576C113.079 18.8576 112.149 19.1707 111.426 19.7968C110.721 20.4033 110.291 21.2544 110.134 22.35Z" fill="#1D2127"/>
<path d="M89.6719 31.0662V16.5978H92.636V18.7696H93.1056C93.3795 18.1826 93.8686 17.6348 94.5729 17.1261C95.2773 16.6174 96.324 16.3631 97.7131 16.3631C98.8088 16.3631 99.7773 16.6076 100.619 17.0967C101.479 17.5859 102.154 18.2804 102.644 19.1804C103.133 20.0609 103.377 21.1272 103.377 22.3793V31.0662H100.354V22.6141C100.354 21.3619 100.041 20.4424 99.4153 19.8554C98.7892 19.2489 97.9284 18.9456 96.8327 18.9456C95.5805 18.9456 94.5729 19.3565 93.8099 20.1782C93.0664 21 92.6947 22.1935 92.6947 23.7587V31.0662H89.6719Z" fill="#1D2127"/>
<path d="M82.1631 31.0662V16.5978H85.1859V31.0662H82.1631ZM83.6892 14.6315C83.1022 14.6315 82.6033 14.4456 82.1924 14.0739C81.8011 13.6826 81.6055 13.1837 81.6055 12.5772C81.6055 11.9707 81.8011 11.4815 82.1924 11.1098C82.6033 10.7185 83.1022 10.5228 83.6892 10.5228C84.2957 10.5228 84.7946 10.7185 85.1859 11.1098C85.5772 11.4815 85.7728 11.9707 85.7728 12.5772C85.7728 13.1837 85.5772 13.6826 85.1859 14.0739C84.7946 14.4456 84.2957 14.6315 83.6892 14.6315Z" fill="#1D2127"/>
<path d="M64.1055 31.0662V16.5978H67.0696V18.7696H67.5391C67.8131 18.1826 68.3022 17.6348 69.0065 17.1261C69.7109 16.6174 70.7576 16.3631 72.1467 16.3631C73.2424 16.3631 74.2108 16.6076 75.0521 17.0967C75.913 17.5859 76.588 18.2804 77.0771 19.1804C77.5663 20.0609 77.8108 21.1272 77.8108 22.3793V31.0662H74.788V22.6141C74.788 21.3619 74.475 20.4424 73.8489 19.8554C73.2228 19.2489 72.3619 18.9456 71.2663 18.9456C70.0141 18.9456 69.0065 19.3565 68.2435 20.1782C67.5 21 67.1283 22.1935 67.1283 23.7587V31.0662H64.1055Z" fill="#1D2127"/>
<path d="M52.0741 31.4771C50.4502 31.4771 49.0513 31.1836 47.8774 30.5967C46.7231 30.0097 45.8231 29.1684 45.1774 28.0728C44.5513 26.9575 44.2383 25.6075 44.2383 24.0228V10.5228H47.4372V24.1108C47.4372 25.5586 47.8383 26.6738 48.6404 27.4564C49.4426 28.2391 50.5872 28.6304 52.0741 28.6304C53.5611 28.6304 54.7056 28.2391 55.5078 27.4564C56.31 26.6738 56.711 25.5586 56.711 24.1108V10.5228H59.8806V24.0228C59.8806 25.6075 59.5675 26.9575 58.9415 28.0728C58.3154 29.1684 57.4154 30.0097 56.2415 30.5967C55.0676 31.1836 53.6784 31.4771 52.0741 31.4771Z" fill="#1D2127"/>
</svg>
