<svg width="16" height="16" viewBox="0 0 16 16" fill="none" xmlns="http://www.w3.org/2000/svg">
<g clip-path="url(#clip0_1192_4904)">
<path d="M9.53487 3.41644L10.3238 4.22012C10.2453 4.30199 10.1656 4.39073 10.0803 4.47448C8.03338 6.48932 5.9865 8.5025 3.93961 10.514C3.60822 10.8396 3.3986 11.1952 3.50027 11.6795C3.54052 11.8662 3.62704 12.0398 3.75194 12.1846C3.87684 12.3294 4.03615 12.4407 4.21535 12.5085C4.39454 12.5763 4.58792 12.5983 4.77787 12.5726C4.96781 12.5469 5.14827 12.4743 5.3028 12.3614C5.38549 12.2976 5.46371 12.2283 5.53691 12.1539C7.92564 9.8049 10.3137 7.45529 12.7012 5.10505C13.7563 4.06388 13.7123 2.55275 12.6171 1.65032C11.6889 0.885383 10.3702 0.969127 9.46144 1.86156C7.65137 3.63809 5.8436 5.41732 4.03814 7.19926C3.42809 7.79963 2.81972 8.40146 2.21302 9.00475C1.27158 9.94655 0.941447 11.0777 1.29605 12.3526C1.65819 13.6538 2.5513 14.4693 3.86931 14.768C5.12832 15.0524 6.22227 14.6893 7.13672 13.7919C8.73841 12.2207 10.338 10.6471 11.9355 9.07099L14.9701 6.08373C15.0511 6.00436 15.1352 5.92874 15.2211 5.85C15.4829 6.12248 15.7333 6.38183 16 6.65868C15.9555 6.70743 15.8896 6.78367 15.818 6.85554C13.1048 9.52971 10.4135 12.2264 7.66518 14.8643C6.75324 15.7392 5.56076 16.0779 4.28542 15.9848C3.32929 15.9229 2.41689 15.5633 1.67726 14.9568C0.937622 14.3503 0.408188 13.5276 0.163824 12.6051C-0.191411 11.2927 0.0382981 10.0684 0.782659 8.94163C0.9742 8.65832 1.19439 8.3953 1.43978 8.15669C3.82894 5.79271 6.22248 3.43352 8.62042 1.07912C10.3219 -0.588877 12.9818 -0.280777 14.1567 1.70407C14.9054 2.97084 14.7561 4.59259 13.7324 5.66501C12.8035 6.63868 11.8276 7.56736 10.8692 8.51291C9.33779 10.0224 7.80472 11.5298 6.26997 13.0351C5.60971 13.6806 4.81138 13.88 3.93145 13.6094C3.06156 13.3413 2.52243 12.7345 2.35486 11.8389C2.21051 11.0702 2.43645 10.3934 2.99315 9.84281C5.13084 7.72964 7.27166 5.6198 9.41562 3.5133C9.44512 3.48705 9.47838 3.46331 9.53487 3.41644Z" fill="#0D0D0D"/>
</g>
<defs>
<clipPath id="clip0_1192_4904">
<rect width="16" height="16" fill="white"/>
</clipPath>
</defs>
</svg>
