<svg width="307" height="268" viewBox="0 0 307 268" fill="none" xmlns="http://www.w3.org/2000/svg">
<g clip-path="url(#clip0_1192_5439)">
<path d="M121.883 0.0361329H209.372C218.42 0.0361329 221.296 2.78044 221.356 11.7445C221.356 48.272 221.524 84.8474 221.356 121.351C221.225 143.366 206.819 157.495 184.719 157.579C150.771 157.707 116.814 157.707 82.8493 157.579C74.6638 157.329 66.6357 159.864 60.0783 164.769C45.8525 175.375 31.2072 185.442 16.7776 195.772C13.2541 198.301 9.79052 200.446 5.26031 198.169C0.538338 195.772 0.130859 191.65 0.130859 187.024C0.186788 136.691 0.186788 86.3574 0.130859 36.0243C0.130859 14.9922 14.7402 0.0720471 35.6895 0.0720471C64.3689 -0.0597778 93.1201 0.0361329 121.883 0.0361329ZM116.982 49.075C100.203 49.075 83.4844 49.075 66.7298 49.075C59.6708 49.075 55.656 52.4425 55.7518 58.0031C55.8357 63.2042 59.9825 66.9552 66.3703 66.9672C99.8715 67.0551 133.373 67.0551 166.874 66.9672C173.741 66.9672 177.72 63.1443 177.492 57.4998C177.265 52.1309 173.478 49.111 166.646 49.111C150.095 49.075 133.545 49.075 116.982 49.075ZM116.646 91.0192C99.8675 91.0192 83.1489 91.0192 66.3943 91.0192C61.6004 91.0192 57.7173 92.2177 56.2312 97.3828C54.3137 103.974 58.9757 108.947 67.3051 108.971C100.215 109.019 133.121 109.019 166.023 108.971C173.502 108.971 177.564 105.556 177.492 99.7317C177.421 93.9074 173.513 91.0552 165.711 91.0432C149.348 91.0273 132.993 91.0192 116.646 91.0192Z" fill="#0D0D0D" fill-opacity="0.1"/>
<path d="M239.274 70.7782C253.656 70.7782 267.378 69.3281 280.621 71.1617C296.081 73.2948 306.916 88.1431 306.988 103.83C307.071 155.17 307.119 206.498 306.808 257.826C306.808 261.181 304.411 266.095 301.798 267.413C299.186 268.731 293.888 267.605 291.012 265.687C276.127 255.633 261.53 245.159 247.088 234.529C240.879 229.779 233.235 227.289 225.42 227.47C191.251 227.698 157.107 227.614 122.927 227.542C104.806 227.542 90.2803 217.248 86.9725 201.093C85.3306 193.208 85.774 184.879 85.3066 175.926C88.4227 175.771 90.7118 175.567 93.0008 175.567C123.766 175.567 154.542 175.711 185.283 175.495C211.997 175.315 232.431 159.149 238.016 133.874C238.944 128.772 239.346 123.587 239.214 118.403C239.37 102.464 239.274 86.5013 239.274 70.7782Z" fill="#0D0D0D" fill-opacity="0.1"/>
</g>
<defs>
<clipPath id="clip0_1192_5439">
<rect width="307" height="268" fill="white"/>
</clipPath>
</defs>
</svg>
