<svg width="40" height="40" viewBox="0 0 40 40" fill="none" xmlns="http://www.w3.org/2000/svg">
<circle cx="20" cy="20" r="20" fill="#00CEF3"/>
<path d="M30.1503 20.001C30.1122 21.2649 29.5904 22.2528 28.4769 22.8774C24.4874 25.1126 20.4942 27.3421 16.4973 29.5658C15.2767 30.2426 14.0669 30.1116 12.9698 29.2898C11.8726 28.468 11.4424 27.3631 11.7088 26.0017C12.0822 24.0961 12.4736 22.1936 12.8152 20.2825C12.8828 19.9059 12.7904 19.4887 12.7166 19.1004C12.3913 17.3968 12.0442 15.697 11.7072 13.9948C11.4362 12.6171 11.8912 11.4997 12.9993 10.6842C14.1073 9.86857 15.3085 9.77189 16.5292 10.4502C19.5668 12.1391 22.6015 13.8327 25.6334 15.5309C26.5808 16.0603 27.5319 16.5827 28.4746 17.12C29.5858 17.7531 30.1122 18.7324 30.1503 20.001ZM14.9312 21.0926C14.9058 21.143 14.884 21.1951 14.8659 21.2486C14.5173 22.9889 14.1671 24.7277 13.8278 26.4727C13.74 26.9265 13.806 27.3623 14.2277 27.6516C14.6493 27.9409 15.0608 27.8746 15.47 27.6454C19.4322 25.4356 23.3923 23.2239 27.3503 21.01C28.282 20.4876 28.282 19.5285 27.344 19.003C23.4021 16.7875 19.455 14.5789 15.5027 12.3769C15.0647 12.1321 14.6206 12.0596 14.1943 12.3769C13.768 12.6943 13.7501 13.1527 13.8433 13.6151C14.1679 15.2822 14.5088 16.9445 14.8302 18.6108C14.8776 18.8533 14.9855 18.9172 15.2185 18.9149C16.2535 18.9024 17.2886 18.9086 18.3244 18.9094C19.0419 18.9094 19.5357 19.3429 19.5505 19.9823C19.5652 20.6217 19.0551 21.0887 18.3197 21.0895C17.1938 21.0911 16.0687 21.0895 14.935 21.0895L14.9312 21.0926Z" fill="#0D0D0D"/>
</svg>
