<svg width="16" height="12" viewBox="0 0 16 12" fill="none" xmlns="http://www.w3.org/2000/svg">
<g clip-path="url(#clip0_1192_6089)">
<path d="M8.00813 0.000909114C9.97646 0.000909114 11.9448 0.000909114 13.9131 0.000909114C15.1394 0.000909114 15.9981 0.857158 15.9988 2.07966C15.9988 4.69466 15.9988 7.30945 15.9988 9.92403C15.9988 11.1465 15.1394 12.0022 13.9131 12.0028C9.96646 12.0028 6.01937 12.0028 2.07187 12.0028C0.86625 12.0028 0.0025 11.1415 0.001875 9.94028C-0.000625 7.31528 -0.000625 4.69028 0.001875 2.06528C0.001875 0.864034 0.866251 0.00278404 2.07125 0.00278404C4.05042 -0.000132629 6.02938 -0.000757553 8.00813 0.000909114ZM1.78938 10.9665H14.2125L9.63875 6.16216L8 7.45591L6.28813 6.16966L1.78938 10.9665ZM1.52062 1.01528L8.00125 6.00091L14.4788 1.01528H1.52062ZM1.03313 2.02653V10.3072L5.49875 5.50216L1.03313 2.02653ZM10.5013 5.50278L14.9669 10.3053V2.02778L10.5013 5.50278Z" fill="#E6A875"/>
</g>
<defs>
<clipPath id="clip0_1192_6089">
<rect width="16" height="12.0037" fill="white"/>
</clipPath>
</defs>
</svg>
