<svg width="35" height="35" viewBox="0 0 35 35" fill="none" xmlns="http://www.w3.org/2000/svg">
<path d="M33.784 17.392C33.784 20.634 32.8226 23.8033 31.0215 26.4989C29.2203 29.1946 26.6602 31.2956 23.665 32.5362C20.6697 33.7769 17.3738 34.1015 14.1941 33.469C11.0144 32.8365 8.09358 31.2753 5.80111 28.9829C3.50865 26.6904 1.94746 23.7697 1.31498 20.5899C0.682486 17.4102 1.0071 14.1143 2.24777 11.119C3.48845 8.1238 5.58945 5.56372 8.2851 3.76254C10.9808 1.96137 14.15 1 17.392 1C21.7394 1 25.9088 2.72702 28.9829 5.80112C32.057 8.87521 33.784 13.0446 33.784 17.392Z" fill="#F2F4FF"/>
<path d="M17.392 33.784C26.4451 33.784 33.784 26.4451 33.784 17.392C33.784 8.33895 26.4451 1 17.392 1C8.33895 1 1 8.33895 1 17.392C1 26.4451 8.33895 33.784 17.392 33.784Z" stroke="#454F5B" stroke-opacity="0.2" stroke-miterlimit="10"/>
<path d="M15.3494 25.5002H18.6144V17.3232H20.8924L21.1354 14.5851H18.6144V13.0262C18.6144 12.3812 18.7444 12.1262 19.3684 12.1262H21.1354V9.28516H18.8744C16.4444 9.28516 15.3484 10.3551 15.3484 12.4031V14.5862H13.6484V17.3581H15.3484L15.3494 25.5002Z" fill="#0D0D0D"/>
</svg>
