<svg width="35" height="35" viewBox="0 0 35 35" fill="none" xmlns="http://www.w3.org/2000/svg">
<path d="M33.7547 17.392C33.7547 20.634 32.7933 23.8033 30.9921 26.4989C29.191 29.1946 26.6309 31.2956 23.6357 32.5362C20.6404 33.7769 17.3445 34.1015 14.1648 33.469C10.985 32.8365 8.06425 31.2753 5.77179 28.9829C3.47933 26.6904 1.91817 23.7697 1.28568 20.5899C0.653189 17.4102 0.977807 14.1143 2.21848 11.119C3.45915 8.1238 5.56015 5.56372 8.2558 3.76254C10.9515 1.96137 14.1207 1 17.3627 1C21.7101 1 25.8795 2.72702 28.9536 5.80112C32.0277 8.87521 33.7547 13.0446 33.7547 17.392Z" fill="#F2F4FF"/>
<path d="M33.7547 17.392C33.7547 20.634 32.7933 23.8033 30.9921 26.4989C29.191 29.1946 26.6309 31.2956 23.6357 32.5362C20.6404 33.7769 17.3445 34.1015 14.1648 33.469C10.985 32.8365 8.06425 31.2753 5.77179 28.9829C3.47933 26.6904 1.91817 23.7697 1.28568 20.5899C0.653189 17.4102 0.977807 14.1143 2.21848 11.119C3.45915 8.1238 5.56015 5.56372 8.2558 3.76254C10.9515 1.96137 14.1207 1 17.3627 1C21.7101 1 25.8795 2.72702 28.9536 5.80112C32.0277 8.87521 33.7547 13.0446 33.7547 17.392Z" stroke="#454F5B" stroke-opacity="0.2" stroke-miterlimit="10"/>
<path d="M17.3626 11.0629C19.4246 11.0629 19.6686 11.0709 20.4836 11.1079C20.9734 11.1137 21.4584 11.2036 21.9176 11.3739C22.2505 11.5023 22.5528 11.699 22.8051 11.9514C23.0574 12.2037 23.2542 12.506 23.3826 12.8389C23.5527 13.2981 23.6427 13.7832 23.6486 14.2729C23.6856 15.0869 23.6936 15.3309 23.6936 17.3929C23.6936 19.4549 23.6856 19.6988 23.6486 20.5128C23.6427 21.0026 23.5528 21.4876 23.3826 21.9469C23.2543 22.2799 23.0576 22.5824 22.8053 22.8349C22.553 23.0874 22.2506 23.2843 21.9176 23.4129C21.4583 23.5829 20.9733 23.6729 20.4836 23.6789C19.6686 23.7159 19.4246 23.7239 17.3626 23.7239C15.3006 23.7239 15.0566 23.7159 14.2426 23.6789C13.7529 23.673 13.2678 23.583 12.8086 23.4129C12.4754 23.2845 12.1728 23.0877 11.9203 22.8352C11.6678 22.5827 11.471 22.2801 11.3426 21.9469C11.1725 21.4876 11.0825 21.0026 11.0766 20.5128C11.0396 19.6988 11.0316 19.4549 11.0316 17.3929C11.0316 15.3309 11.0386 15.0869 11.0766 14.2729C11.0825 13.7832 11.1725 13.2981 11.3426 12.8389C11.4711 12.5058 11.668 12.2034 11.9205 11.9511C12.173 11.6988 12.4755 11.5022 12.8086 11.3739C13.2678 11.2035 13.7529 11.1135 14.2426 11.1079C15.0566 11.0709 15.3016 11.0629 17.3626 11.0629ZM17.3626 9.67188C15.2626 9.67188 15.0026 9.68087 14.1786 9.71887C13.5378 9.73174 12.9038 9.85314 12.3036 10.0779C11.7907 10.2764 11.3249 10.5799 10.936 10.9689C10.5472 11.3579 10.2439 11.8239 10.0456 12.3369C9.82091 12.9368 9.69951 13.5704 9.68658 14.2109C9.64858 15.0349 9.64062 15.2979 9.64062 17.3949C9.64062 19.4919 9.64958 19.7549 9.68658 20.5789C9.69953 21.2193 9.82092 21.8529 10.0456 22.4529C10.244 22.9657 10.5473 23.4315 10.9362 23.8203C11.325 24.2092 11.7907 24.5125 12.3036 24.7109C12.9038 24.9357 13.5378 25.0571 14.1786 25.0699C15.0026 25.1069 15.2646 25.1159 17.3626 25.1159C19.4606 25.1159 19.7226 25.1069 20.5466 25.0699C21.1871 25.0569 21.8207 24.9356 22.4206 24.7109C22.9335 24.5126 23.3994 24.2093 23.7882 23.8205C24.1771 23.4316 24.4803 22.9658 24.6786 22.4529C24.9035 21.853 25.0249 21.2194 25.0376 20.5789C25.0746 19.7549 25.0836 19.4919 25.0836 17.3949C25.0836 15.2979 25.0746 15.0349 25.0376 14.2109C25.0249 13.5704 24.9035 12.9367 24.6786 12.3369C24.4804 11.8238 24.1772 11.3578 23.7883 10.9688C23.3995 10.5798 22.9336 10.2763 22.4206 10.0779C21.8207 9.85327 21.1871 9.73188 20.5466 9.71887C19.7226 9.68087 19.4606 9.67188 17.3626 9.67188Z" fill="#0D0D0D"/>
<path d="M17.3634 13.4258C16.5793 13.4258 15.8127 13.6583 15.1607 14.0939C14.5087 14.5296 14.0005 15.1488 13.7003 15.8732C13.4002 16.5977 13.3217 17.3948 13.4746 18.1639C13.6275 18.933 14.005 19.6396 14.5594 20.1942C15.1138 20.7487 15.8202 21.1264 16.5893 21.2795C17.3584 21.4326 18.1556 21.3542 18.8801 21.0543C19.6046 20.7543 20.2239 20.2463 20.6597 19.5944C21.0955 18.9425 21.3282 18.1759 21.3284 17.3918C21.3284 16.3401 20.9107 15.3315 20.1672 14.5878C19.4236 13.844 18.4151 13.426 17.3634 13.4258ZM17.3634 19.9648C16.8543 19.9648 16.3567 19.8138 15.9334 19.531C15.5101 19.2482 15.1802 18.8462 14.9854 18.3759C14.7905 17.9055 14.7396 17.3879 14.8389 16.8886C14.9382 16.3893 15.1834 15.9307 15.5433 15.5707C15.9033 15.2108 16.362 14.9656 16.8613 14.8663C17.3606 14.767 17.8781 14.8179 18.3485 15.0128C18.8188 15.2076 19.2208 15.5375 19.5036 15.9608C19.7864 16.384 19.9375 16.8817 19.9375 17.3908C19.9375 18.0735 19.6663 18.7282 19.1835 19.2109C18.7008 19.6936 18.0461 19.9648 17.3634 19.9648Z" fill="#0D0D0D"/>
<path d="M22.4106 13.2708C22.4106 13.4541 22.3563 13.6333 22.2544 13.7858C22.1526 13.9382 22.0078 14.057 21.8384 14.1272C21.669 14.1974 21.4826 14.2157 21.3028 14.1799C21.123 14.1442 20.9578 14.0559 20.8282 13.9262C20.6985 13.7966 20.6102 13.6314 20.5744 13.4516C20.5387 13.2718 20.5571 13.0854 20.6272 12.916C20.6974 12.7466 20.8162 12.6018 20.9686 12.4999C21.1211 12.3981 21.3003 12.3438 21.4836 12.3438C21.7295 12.3438 21.9653 12.4414 22.1391 12.6152C22.313 12.7891 22.4106 13.0249 22.4106 13.2708Z" fill="#0D0D0D"/>
</svg>
