<svg width="35" height="35" viewBox="0 0 35 35" fill="none" xmlns="http://www.w3.org/2000/svg">
<path d="M33.7743 17.392C33.7743 20.634 32.8129 23.8033 31.0117 26.4989C29.2105 29.1946 26.6504 31.2956 23.6552 32.5362C20.6599 33.7769 17.3641 34.1015 14.1843 33.469C11.0046 32.8365 8.08382 31.2753 5.79135 28.9829C3.49889 26.6904 1.9377 23.7697 1.30521 20.5899C0.67272 17.4102 0.997338 14.1143 2.23801 11.119C3.47868 8.1238 5.57968 5.56372 8.27533 3.76254C10.971 1.96137 14.1402 1 17.3822 1C21.7297 1 25.899 2.72702 28.9731 5.80112C32.0472 8.87521 33.7743 13.0446 33.7743 17.392Z" fill="#F2F4FF"/>
<path d="M33.7743 17.392C33.7743 20.634 32.8129 23.8033 31.0117 26.4989C29.2105 29.1946 26.6504 31.2956 23.6552 32.5362C20.6599 33.7769 17.3641 34.1015 14.1843 33.469C11.0046 32.8365 8.08382 31.2753 5.79135 28.9829C3.49889 26.6904 1.9377 23.7697 1.30521 20.5899C0.67272 17.4102 0.997338 14.1143 2.23801 11.119C3.47868 8.1238 5.57968 5.56372 8.27533 3.76254C10.971 1.96137 14.1402 1 17.3822 1C21.7297 1 25.899 2.72702 28.9731 5.80112C32.0472 8.87521 33.7743 13.0446 33.7743 17.392Z" stroke="#454F5B" stroke-opacity="0.2" stroke-miterlimit="10"/>
<path d="M24.8661 19.0094V24.5434H21.6581V19.3804C21.6581 18.0804 21.1951 17.1984 20.0331 17.1984C19.6713 17.2002 19.3188 17.314 19.0242 17.524C18.7295 17.734 18.507 18.03 18.3871 18.3714C18.3048 18.6235 18.2689 18.8885 18.2811 19.1534V24.5424H15.0721C15.0721 24.5424 15.1151 15.7984 15.0721 14.8924H18.2811V16.2594C18.2751 16.2704 18.2651 16.2804 18.2601 16.2914H18.2811V16.2594C18.5715 15.7548 18.9946 15.3395 19.5045 15.0585C20.0143 14.7775 20.5914 14.6415 21.1731 14.6654C23.2841 14.6654 24.8661 16.0444 24.8661 19.0074M11.7161 10.2404C11.4872 10.2209 11.2567 10.2488 11.0391 10.3224C10.8214 10.3959 10.6212 10.5135 10.4511 10.6679C10.2809 10.8222 10.1443 11.01 10.05 11.2195C9.95557 11.4289 9.90537 11.6556 9.90248 11.8853C9.89958 12.1151 9.94406 12.3429 10.0331 12.5547C10.1222 12.7665 10.254 12.9576 10.4202 13.1162C10.5865 13.2748 10.7836 13.3974 10.9993 13.4764C11.2151 13.5554 11.4448 13.5891 11.6741 13.5754H11.6951C11.9253 13.5955 12.1572 13.5677 12.3761 13.4938C12.5951 13.4198 12.7963 13.3013 12.9672 13.1457C13.138 12.9901 13.2748 12.8008 13.3689 12.5897C13.4629 12.3787 13.5123 12.1504 13.5137 11.9193C13.5152 11.6882 13.4687 11.4593 13.3773 11.2471C13.2859 11.0348 13.1515 10.8438 12.9827 10.6861C12.8138 10.5283 12.614 10.4073 12.3961 10.3306C12.1781 10.2539 11.9466 10.2232 11.7161 10.2404ZM10.0911 24.5404H13.2981V14.8904H10.0911V24.5404Z" fill="#1C1E1E"/>
</svg>
