<svg width="16" height="16" viewBox="0 0 16 16" fill="none" xmlns="http://www.w3.org/2000/svg">
<path d="M8.0013 1.33301C6.58681 1.33301 5.23026 1.89491 4.23007 2.89511C3.22987 3.8953 2.66797 5.25185 2.66797 6.66634C2.66797 10.2663 7.36797 14.333 7.56797 14.5063C7.68872 14.6096 7.8424 14.6664 8.0013 14.6664C8.1602 14.6664 8.31388 14.6096 8.43464 14.5063C8.66797 14.333 13.3346 10.2663 13.3346 6.66634C13.3346 5.25185 12.7727 3.8953 11.7725 2.89511C10.7723 1.89491 9.41579 1.33301 8.0013 1.33301ZM8.0013 13.0997C6.5813 11.7663 4.0013 8.89301 4.0013 6.66634C4.0013 5.60548 4.42273 4.58806 5.17288 3.83791C5.92302 3.08777 6.94044 2.66634 8.0013 2.66634C9.06217 2.66634 10.0796 3.08777 10.8297 3.83791C11.5799 4.58806 12.0013 5.60548 12.0013 6.66634C12.0013 8.89301 9.4213 11.773 8.0013 13.0997ZM8.0013 3.99967C7.47389 3.99967 6.95831 4.15607 6.51978 4.44909C6.08125 4.74211 5.73946 5.15858 5.53762 5.64585C5.33579 6.13312 5.28298 6.6693 5.38587 7.18658C5.48877 7.70386 5.74274 8.17902 6.11568 8.55196C6.48862 8.9249 6.96378 9.17887 7.48106 9.28177C7.99834 9.38466 8.53452 9.33185 9.02179 9.13002C9.50906 8.92819 9.92554 8.58639 10.2186 8.14786C10.5116 7.70933 10.668 7.19376 10.668 6.66634C10.668 5.9591 10.387 5.28082 9.88692 4.78072C9.38682 4.28063 8.70855 3.99967 8.0013 3.99967ZM8.0013 7.99967C7.73759 7.99967 7.47981 7.92148 7.26054 7.77497C7.04128 7.62846 6.87038 7.42022 6.76946 7.17659C6.66855 6.93295 6.64214 6.66486 6.69359 6.40622C6.74504 6.14758 6.87202 5.91 7.05849 5.72353C7.24496 5.53706 7.48254 5.41007 7.74118 5.35863C7.99982 5.30718 8.26791 5.33358 8.51155 5.4345C8.75518 5.53542 8.96342 5.70632 9.10993 5.92558C9.25644 6.14485 9.33464 6.40263 9.33464 6.66634C9.33464 7.01996 9.19416 7.3591 8.94411 7.60915C8.69406 7.8592 8.35492 7.99967 8.0013 7.99967Z" fill="#E6A675"/>
</svg>
