<svg width="16" height="16" viewBox="0 0 16 16" fill="none" xmlns="http://www.w3.org/2000/svg">
<path d="M13.6526 10.3249L12.5526 9.22487C12.2247 8.8996 11.7821 8.71622 11.3203 8.71425C10.8584 8.71229 10.4143 8.8919 10.0836 9.21437C9.9072 9.39181 9.67444 9.50221 9.4254 9.52658C9.17636 9.55094 8.92662 9.48775 8.71914 9.34787C7.90024 8.80135 7.19674 8.09921 6.64864 7.28137C6.51122 7.07158 6.45031 6.82083 6.47618 6.57138C6.50204 6.32192 6.6131 6.08901 6.79064 5.91187C7.11019 5.58091 7.28749 5.13801 7.28459 4.67796C7.28169 4.21792 7.09883 3.77729 6.77514 3.45037L5.67514 2.35037C5.34581 2.02217 4.89983 1.83789 4.43489 1.83789C3.96995 1.83789 3.52397 2.02217 3.19464 2.35037L2.87814 2.66737C1.22814 4.31737 1.35164 7.78637 4.78464 11.2174C6.85464 13.2879 8.93814 14.1549 10.6276 14.1549C11.125 14.1714 11.6206 14.0888 12.0857 13.9119C12.5508 13.735 12.976 13.4673 13.3366 13.1244L13.6536 12.8074C13.9824 12.4779 14.167 12.0314 14.1668 11.5659C14.1666 11.1004 13.9817 10.6541 13.6526 10.3249ZM12.9456 12.1004L12.6286 12.4174C11.3286 13.7174 8.45914 13.4799 5.49064 10.5109C2.52214 7.54187 2.28414 4.67037 3.58414 3.37037L3.89864 3.05387C4.04024 2.91278 4.23199 2.83356 4.43189 2.83356C4.63179 2.83356 4.82353 2.91278 4.96514 3.05387L6.06514 4.15387C6.20417 4.2936 6.28309 4.48213 6.28505 4.67923C6.28701 4.87634 6.21186 5.0664 6.07564 5.20887C5.73778 5.54889 5.52702 5.99468 5.47869 6.47157C5.43035 6.94846 5.54737 7.42748 5.81014 7.82837C6.43291 8.76032 7.23376 9.55998 8.16664 10.1814C8.56633 10.4442 9.04409 10.5619 9.52012 10.5148C9.99615 10.4678 10.4416 10.2588 10.7821 9.92287C10.9243 9.78503 11.1149 9.7085 11.313 9.70971C11.511 9.71093 11.7006 9.7898 11.8411 9.92937L12.9411 11.0294C13.012 11.0992 13.0684 11.1824 13.107 11.2742C13.1457 11.3659 13.1657 11.4644 13.1662 11.5639C13.1666 11.6635 13.1473 11.7621 13.1095 11.8542C13.0716 11.9462 13.0159 12.0299 12.9456 12.1004Z" fill="#E6A675"/>
</svg>
