<svg width="35" height="35" viewBox="0 0 35 35" fill="none" xmlns="http://www.w3.org/2000/svg">
<path d="M33.745 17.392C33.745 20.634 32.7836 23.8033 30.9824 26.4989C29.1812 29.1946 26.6211 31.2956 23.6259 32.5362C20.6306 33.7769 17.3348 34.1015 14.1551 33.469C10.9753 32.8365 8.05452 31.2753 5.76206 28.9829C3.46959 26.6904 1.9084 23.7697 1.27591 20.5899C0.643423 17.4102 0.968041 14.1143 2.20871 11.119C3.44938 8.1238 5.55042 5.56372 8.24607 3.76254C10.9417 1.96137 14.1109 1 17.3529 1C21.7004 1 25.8697 2.72702 28.9438 5.80112C32.0179 8.87521 33.745 13.0446 33.745 17.392Z" fill="#F2F4FF"/>
<path d="M33.745 17.392C33.745 20.634 32.7836 23.8033 30.9824 26.4989C29.1812 29.1946 26.6211 31.2956 23.6259 32.5362C20.6306 33.7769 17.3348 34.1015 14.1551 33.469C10.9753 32.8365 8.05452 31.2753 5.76206 28.9829C3.46959 26.6904 1.9084 23.7697 1.27591 20.5899C0.643423 17.4102 0.968041 14.1143 2.20871 11.119C3.44938 8.1238 5.55042 5.56372 8.24607 3.76254C10.9417 1.96137 14.1109 1 17.3529 1C21.7004 1 25.8697 2.72702 28.9438 5.80112C32.0179 8.87521 33.745 13.0446 33.745 17.392Z" stroke="#454F5B" stroke-opacity="0.2" stroke-miterlimit="10"/>
<path d="M18.3809 20.9556C17.5936 20.8221 16.8589 20.4724 16.2589 19.9456C15.8439 22.1226 15.3369 24.2096 13.8349 25.2996C13.3709 22.0086 14.5158 19.5376 15.0468 16.9136C14.1408 15.3876 15.1558 12.3136 17.0668 13.0746C19.4198 14.0046 15.0299 18.7466 17.9769 19.3386C21.0529 19.9566 22.3088 14.0016 20.4008 12.0636C17.6448 9.26359 12.3778 12.0006 13.0258 16.0036C13.1838 16.9826 14.1949 17.2796 13.4259 18.6306C11.6619 18.2396 11.1358 16.8486 11.2028 14.9936C11.3096 13.599 11.9054 12.287 12.8851 11.2888C13.8649 10.2906 15.1656 9.67041 16.5579 9.53759C19.8799 9.16559 22.9979 10.7576 23.4279 13.8826C23.9119 17.4096 21.9279 21.2286 18.3759 20.9546" fill="#1C1E1E"/>
</svg>
