<svg width="35" height="35" viewBox="0 0 35 35" fill="none" xmlns="http://www.w3.org/2000/svg">
<path d="M33.7606 17.392C33.7606 20.634 32.7992 23.8033 30.998 26.4989C29.1968 29.1946 26.6368 31.2956 23.6415 32.5362C20.6463 33.7769 17.3504 34.1015 14.1707 33.469C10.9909 32.8365 8.07014 31.2753 5.77768 28.9829C3.48522 26.6904 1.92403 23.7697 1.29154 20.5899C0.659048 17.4102 0.983666 14.1143 2.22434 11.119C3.46501 8.1238 5.56601 5.56372 8.26166 3.76254C10.9573 1.96137 14.1265 1 17.3686 1C21.716 1 25.8854 2.72702 28.9595 5.80112C32.0336 8.87521 33.7606 13.0446 33.7606 17.392Z" fill="#C1D5EF"/>
<path d="M17.3725 33.784C26.4255 33.784 33.7645 26.4451 33.7645 17.392C33.7645 8.33895 26.4255 1 17.3725 1C8.31942 1 0.980469 8.33895 0.980469 17.392C0.980469 26.4451 8.31942 33.784 17.3725 33.784Z" fill="#F2F4FF" stroke="#454F5B" stroke-opacity="0.2" stroke-miterlimit="10"/>
<path d="M24.2224 23.4039L19.1773 16.0591L18.6069 15.2285L14.9978 9.97447L14.6986 9.53906H10.2637L11.3453 11.1141L16.1441 18.1007L16.7145 18.9305L20.5703 24.544L20.8694 24.979H25.3044L24.2224 23.4039ZM21.3956 23.9737L17.39 18.1418L16.8196 17.3115L12.1713 10.5443H14.1708L17.9299 16.017L18.5003 16.8473L23.3953 23.9737H21.3956Z" fill="#0D0D0D"/>
<path d="M16.8201 17.3125L17.3905 18.1427L16.7143 18.9313L11.5256 24.98H10.2461L16.1439 18.1015L16.8201 17.3125Z" fill="#0D0D0D"/>
<path d="M24.7695 9.53906L19.1764 16.0592L18.5001 16.8473L17.9297 16.0172L18.606 15.2285L22.3947 10.8097L23.49 9.53906H24.7695Z" fill="#0D0D0D"/>
</svg>
