<svg width="12" height="14" viewBox="0 0 12 14" fill="none" xmlns="http://www.w3.org/2000/svg">
<g clip-path="url(#clip0_1192_10850)">
<path d="M11.2008 6.17124C11.2008 7.41512 11.1967 8.65901 11.2008 9.90348C11.2068 10.2292 11.1455 10.5527 11.0209 10.8537C10.8963 11.1547 10.711 11.4268 10.4765 11.653C9.93419 12.1973 9.39107 12.74 8.84717 13.2812C8.61976 13.5147 8.34673 13.699 8.04505 13.8225C7.74337 13.946 7.4195 14.0061 7.0936 13.999C5.52897 13.9932 3.96376 13.999 2.39913 13.999C1.01004 13.999 0 12.9826 0 11.5859C0 8.52508 0 5.46405 0 2.40284C0 1.01199 1.0147 0.00253629 2.41138 0.00195312H8.79702C10.189 0.00195312 11.1985 1.01549 11.1991 2.41217C11.201 3.6648 11.2016 4.91782 11.2008 6.17124ZM10.2678 9.33315V9.02874C10.2678 6.83215 10.2678 4.63557 10.2678 2.43899C10.2678 1.51701 9.67934 0.934431 8.75153 0.933848C6.65214 0.933848 4.55276 0.933848 2.45337 0.933848C1.52439 0.933848 0.937144 1.51701 0.937144 2.43899C0.937144 5.48194 0.937144 8.52469 0.937144 11.5672C0.937144 12.4746 1.52614 13.0654 2.43004 13.0671C3.70406 13.0671 4.97788 13.0671 6.25151 13.0671H6.52035C6.52748 13.0329 6.53274 12.9982 6.53609 12.9633C6.53609 12.2538 6.53609 11.5441 6.53609 10.8342C6.53609 9.92331 7.11926 9.33548 8.02491 9.33431C8.76086 9.33257 9.49798 9.33315 10.2683 9.33315H10.2678ZM10.2036 10.2662C9.435 10.2662 8.68738 10.261 7.94152 10.2662C7.66626 10.2691 7.47499 10.4511 7.4709 10.7199C7.46099 11.478 7.4674 12.2315 7.4674 12.989C8.01499 12.9249 10.0852 10.8727 10.2042 10.2656L10.2036 10.2662Z" fill="#F27678"/>
<path d="M6.25423 6.0615C6.75633 6.56127 7.24036 7.02313 7.69698 7.51124C7.81361 7.63779 7.92208 7.85181 7.90692 8.01393C7.86959 8.39648 7.40131 8.51486 7.10332 8.22795C6.66944 7.80982 6.24898 7.3777 5.82036 6.95257C5.75329 6.88551 5.68215 6.82194 5.58709 6.73505L4.29014 8.04075C4.21433 8.11656 4.1426 8.19646 4.06154 8.26585C3.84926 8.4478 3.58626 8.4478 3.40489 8.27227C3.22353 8.09674 3.20779 7.80574 3.41073 7.59522C3.81602 7.17592 4.2324 6.76771 4.64703 6.35716C4.73567 6.2691 4.83539 6.19154 4.96019 6.08307L3.65332 4.7832C3.57051 4.70098 3.48304 4.62283 3.40781 4.53419C3.22295 4.31551 3.22645 4.06241 3.40781 3.87813C3.58917 3.69385 3.85218 3.68102 4.0627 3.87288C4.31346 4.10207 4.54848 4.34875 4.78699 4.59134C5.04592 4.85435 5.30018 5.12085 5.59292 5.42352C5.89792 5.11269 6.18075 4.82402 6.46475 4.53594C6.65603 4.34291 6.84789 4.14989 7.04208 3.95919C7.31034 3.6956 7.56693 3.66761 7.78212 3.87114C7.9973 4.07466 7.97573 4.35283 7.69639 4.62925C7.23103 5.09811 6.75983 5.56114 6.25423 6.0615Z" fill="#F27678"/>
</g>
<defs>
<clipPath id="clip0_1192_10850">
<rect width="11.2014" height="14" fill="white"/>
</clipPath>
</defs>
</svg>
