<svg width="14" height="14" viewBox="0 0 14 14" fill="none" xmlns="http://www.w3.org/2000/svg">
<path fill-rule="evenodd" clip-rule="evenodd" d="M7 0C3.14 0 0 3.14 0 7C0 10.86 3.14 14 7 14C10.86 14 14 10.86 14 7C14 3.14 10.86 0 7 0ZM7 1C10.32 1 13 3.68 13 7C13 10.32 10.32 13 7 13C6.21168 13.0011 5.43089 12.8466 4.70235 12.5455C3.97381 12.2443 3.31183 11.8024 2.75431 11.2451C2.19678 10.6878 1.75468 10.0259 1.45331 9.2975C1.15193 8.56906 0.99721 7.78832 0.998 7C0.998 3.68 3.68 1 7 1ZM10.828 4.574C10.7148 4.57363 10.6048 4.61171 10.516 4.682L5.357 8.617L3.567 6.424C3.48234 6.32366 3.36162 6.26065 3.23089 6.24856C3.10017 6.23647 2.96994 6.27628 2.86832 6.35939C2.76669 6.4425 2.70183 6.56224 2.68774 6.69276C2.67365 6.82329 2.71146 6.95411 2.793 7.057L5.195 10L11.123 5.477C11.2079 5.41468 11.2709 5.32716 11.3031 5.22691C11.3353 5.12667 11.335 5.01881 11.3023 4.91873C11.2696 4.81865 11.2062 4.73144 11.121 4.66954C11.0358 4.60764 10.9333 4.5742 10.828 4.574Z" fill="#32BF74"/>
</svg>
