<svg width="13" height="13" viewBox="0 0 13 13" fill="none" xmlns="http://www.w3.org/2000/svg">
<g clip-path="url(#clip0_1192_10941)">
<path fill-rule="evenodd" clip-rule="evenodd" d="M6.50165 0.540527C3.21703 0.540527 0.539062 3.2147 0.539062 6.49879C0.539062 9.78287 3.21757 12.4603 6.50165 12.4603C9.78574 12.4603 12.4588 9.78287 12.4588 6.49879C12.4588 3.2147 9.78574 0.540527 6.50165 0.540527ZM6.50165 1.62385C7.14209 1.62278 7.77644 1.74815 8.36831 1.99277C8.96019 2.23739 9.49796 2.59645 9.95076 3.04936C10.4036 3.50227 10.7625 4.04011 11.007 4.63204C11.2515 5.22398 11.3767 5.85835 11.3755 6.49879C11.3768 7.13939 11.2516 7.77396 11.0072 8.3661C10.7628 8.95825 10.4039 9.49634 9.95112 9.94952C9.49834 10.4027 8.96057 10.7621 8.36864 11.007C7.77672 11.252 7.14226 11.3777 6.50165 11.377C5.86077 11.3778 5.22603 11.2521 4.63376 11.0073C4.0415 10.7624 3.50335 10.4031 3.05012 9.95C2.5969 9.49688 2.2375 8.95881 1.99251 8.3666C1.74752 7.77439 1.62174 7.13967 1.62238 6.49879C1.62238 3.80024 3.8031 1.62385 6.50165 1.62385ZM6.49299 2.69958C6.42139 2.70029 6.35065 2.71517 6.28484 2.74339C6.21904 2.77161 6.15948 2.81259 6.10961 2.86396C6.05974 2.91534 6.02056 2.9761 5.99432 3.04272C5.96808 3.10933 5.95531 3.18049 5.95674 3.25208V6.49879C5.95704 6.57006 5.97141 6.64058 5.99901 6.7063C6.02662 6.77201 6.06692 6.83163 6.11762 6.88174L8.28426 9.04946C8.33437 9.10104 8.39426 9.14211 8.46042 9.1703C8.52658 9.19848 8.59769 9.21321 8.6696 9.21362C8.74151 9.21404 8.81279 9.20013 8.87927 9.1727C8.94575 9.14528 9.0061 9.10489 9.05681 9.0539C9.10751 9.00291 9.14756 8.94233 9.1746 8.87569C9.20165 8.80906 9.21516 8.73771 9.21434 8.6658C9.21352 8.59389 9.19839 8.52286 9.16983 8.45686C9.14127 8.39086 9.09985 8.33121 9.048 8.28139L7.04115 6.27454V3.25208C7.0426 3.17949 7.02945 3.10735 7.00248 3.03994C6.9755 2.97254 6.93525 2.91124 6.88411 2.8597C6.83298 2.80816 6.772 2.76743 6.70481 2.73992C6.63762 2.71242 6.56559 2.6987 6.49299 2.69958Z" fill="#0D0D0D" fill-opacity="0.8"/>
</g>
<defs>
<clipPath id="clip0_1192_10941">
<rect width="13" height="13" fill="white"/>
</clipPath>
</defs>
</svg>
